<svg width="16" height="14" viewBox="0 0 16 14" fill="none" xmlns="http://www.w3.org/2000/svg">
<path d="M15.2857 9.85714V4.14286C15.2857 3.51168 14.7741 3 14.1429 3H11.8572C11.226 3 10.7143 3.51168 10.7143 4.14286V9.85714C10.7143 10.4883 11.226 11 11.8572 11H14.1429C14.7741 11 15.2857 10.4883 15.2857 9.85714Z" fill="#DDFCF3"/>
<path d="M5.28572 12.1424V1.85672C5.28572 1.22555 4.77404 0.713867 4.14287 0.713867H1.85715C1.22597 0.713867 0.714294 1.22555 0.714294 1.85672V12.1424C0.714294 12.7736 1.22596 13.2853 1.85715 13.2853H4.14287C4.77404 13.2853 5.28572 12.7736 5.28572 12.1424Z" fill="#DDFCF3"/>
<path fill-rule="evenodd" clip-rule="evenodd" d="M14.5714 4.14286C14.5714 3.90616 14.3795 3.71429 14.1429 3.71429H11.8571C11.6205 3.71429 11.4286 3.90616 11.4286 4.14286V9.85714C11.4286 10.0938 11.6205 10.2857 11.8571 10.2857H14.1429C14.3795 10.2857 14.5714 10.0938 14.5714 9.85714V4.14286ZM14.1429 2.28572C15.1686 2.28572 16 3.11719 16 4.14286V9.85714C16 10.8829 15.1686 11.7143 14.1429 11.7143H11.8571C10.8315 11.7143 10 10.8829 10 9.85714V8H6V12.1429C6 13.1686 5.16853 14 4.14286 14H1.85714C0.831471 14 -4.49143e-08 13.1686 0 12.1429L4.496e-07 1.85714C4.944e-07 0.831475 0.831471 0 1.85714 0L4.14286 1.15803e-06C5.16853 1.15803e-06 6 0.831475 6 1.85714V6H10V4.14286C10 3.11719 10.8315 2.28572 11.8571 2.28572H14.1429ZM4.57143 1.85714C4.57143 1.62045 4.37956 1.42857 4.14286 1.42857H1.85714C1.62045 1.42857 1.42857 1.62045 1.42857 1.85714V12.1429C1.42857 12.3795 1.62045 12.5714 1.85714 12.5714H4.14286C4.37956 12.5714 4.57143 12.3795 4.57143 12.1429V1.85714Z" fill="#2D7614"/>
</svg>
