<svg width="21" height="21" viewBox="0 0 21 21" fill="none" xmlns="http://www.w3.org/2000/svg">
<path d="M7.71387 4.23298C7.71387 4.9718 8.00736 5.68035 8.52978 6.20278C9.05221 6.7252 9.76076 7.01869 10.4996 7.01869C11.2384 7.01869 11.947 6.7252 12.4694 6.20278C12.9918 5.68035 13.2853 4.9718 13.2853 4.23298C13.2853 3.49416 12.9918 2.78561 12.4694 2.26318C11.947 1.74076 11.2384 1.44727 10.4996 1.44727C9.76076 1.44727 9.05221 1.74076 8.52978 2.26318C8.00736 2.78561 7.71387 3.49416 7.71387 4.23298Z" stroke="black" stroke-width="1.5" stroke-linecap="round" stroke-linejoin="round"/>
<path d="M10.5 7.01953V16.7695" stroke="black" stroke-width="1.5" stroke-linecap="round" stroke-linejoin="round"/>
<path d="M6.66922 12.4062C4.37944 13.0685 2.83887 14.3064 2.83887 15.7241C2.83887 17.8396 6.26868 19.5545 10.4996 19.5545C14.7305 19.5545 18.1603 17.8396 18.1603 15.7241C18.1603 14.3064 16.6198 13.0685 14.3299 12.4062" stroke="black" stroke-width="1.5" stroke-linecap="round" stroke-linejoin="round"/>
</svg>
