<svg width="21" height="22" viewBox="0 0 21 22" fill="none" xmlns="http://www.w3.org/2000/svg">
<path fill-rule="evenodd" clip-rule="evenodd" d="M3.26547 1.47651C2.78516 1.54152 2.3235 1.78625 1.99052 2.15238C1.65276 2.52374 1.46344 2.95155 1.40693 3.47114C1.39118 3.61599 1.38576 4.30417 1.39009 5.60972L1.39647 7.53472L1.45527 7.66672C1.60803 8.00972 1.97376 8.20222 2.31144 8.11735C2.53303 8.06166 2.73062 7.89028 2.82817 7.66914L2.88747 7.53472L2.89797 5.53272C2.90841 3.54227 2.90872 3.53013 2.9536 3.42844C3.01129 3.2977 3.14804 3.15443 3.27284 3.094C3.3699 3.04698 3.3815 3.04665 5.28147 3.03572L7.19247 3.02472L7.32078 2.96259C7.53187 2.8604 7.69546 2.6534 7.74861 2.42126C7.82963 2.0675 7.64588 1.68435 7.31847 1.52432L7.19247 1.46272L5.30247 1.45966C4.26297 1.45799 3.34632 1.46558 3.26547 1.47651ZM13.8254 1.47458C13.6267 1.51578 13.4158 1.68457 13.3178 1.88072C13.1158 2.28504 13.2772 2.76527 13.6815 2.96308L13.8075 3.02472L15.7185 3.03572C17.6184 3.04665 17.63 3.04698 17.7271 3.094C17.8519 3.15443 17.9887 3.2977 18.0463 3.42844C18.0912 3.53013 18.0915 3.54227 18.102 5.53272L18.1125 7.53472L18.1713 7.66672C18.2735 7.89611 18.4639 8.0625 18.6872 8.11757C19.0257 8.20103 19.3947 8.00796 19.5442 7.66914L19.6035 7.53472L19.6099 5.60972C19.6142 4.30417 19.6088 3.61599 19.593 3.47114C19.4774 2.40808 18.7167 1.60429 17.7035 1.47451C17.4907 1.44725 13.9569 1.44732 13.8254 1.47458ZM8.27872 6.57999C8.03098 6.62366 8.07017 6.58645 6.12945 8.62035C4.05637 10.793 4.18947 10.6297 4.18947 10.9997C4.18947 11.3697 4.05637 11.2065 6.12945 13.3791C8.0809 15.4242 8.02922 15.3754 8.28737 15.4186C8.54779 15.4621 8.78291 15.3755 8.96216 15.17C9.10988 15.0007 9.16194 14.8496 9.15211 14.6187C9.13762 14.2786 9.21782 14.3778 7.51205 12.5892L5.99614 10.9997L7.51205 9.41022C9.21782 7.62164 9.13762 7.72088 9.15211 7.38072C9.15807 7.24054 9.15039 7.179 9.11431 7.07829C9.03056 6.84456 8.79045 6.62579 8.57732 6.58903C8.41753 6.56148 8.38859 6.5606 8.27872 6.57999ZM12.4577 6.57999C12.2969 6.60832 12.1593 6.69005 12.0378 6.8294C11.8901 6.99873 11.838 7.14981 11.8478 7.38072C11.8623 7.72088 11.7821 7.62164 13.4879 9.41022L15.0038 10.9997L13.4879 12.5892C11.7821 14.3778 11.8623 14.2786 11.8478 14.6187C11.838 14.8496 11.8901 15.0007 12.0378 15.17C12.2166 15.3751 12.4521 15.4619 12.7121 15.4188C12.9701 15.376 12.9185 15.4248 14.8705 13.3791C16.9436 11.2065 16.8105 11.3697 16.8105 10.9997C16.8105 10.6297 16.9436 10.793 14.8705 8.62035C12.9699 6.62852 12.9665 6.62528 12.7563 6.58903C12.5965 6.56148 12.5676 6.5606 12.4577 6.57999ZM1.94247 13.8906C1.71689 13.9655 1.55238 14.1148 1.45529 14.3327L1.39647 14.4647L1.39009 16.3897C1.38343 18.3971 1.38973 18.5889 1.47255 18.9023C1.6676 19.6403 2.25216 20.2527 2.9566 20.457C3.25577 20.5438 3.43885 20.5504 5.35497 20.5434L7.19247 20.5367L7.31255 20.4778C7.48116 20.395 7.62635 20.2455 7.69595 20.083C7.87058 19.6753 7.70903 19.2273 7.31847 19.0363L7.19247 18.9747L5.28147 18.9637C3.3815 18.9528 3.3699 18.9525 3.27284 18.9054C3.14804 18.845 3.01129 18.7017 2.9536 18.571C2.90872 18.4693 2.90841 18.4572 2.89797 16.4667L2.88747 14.4647L2.82863 14.3327C2.66748 13.9712 2.28063 13.7782 1.94247 13.8906ZM18.6478 13.8898C18.4478 13.9504 18.2667 14.1188 18.1713 14.3327L18.1125 14.4647L18.102 16.4667C18.0915 18.4572 18.0912 18.4693 18.0463 18.571C17.9887 18.7017 17.8519 18.845 17.7271 18.9054C17.63 18.9525 17.6184 18.9528 15.7185 18.9637L13.8075 18.9747L13.6815 19.0363C13.4625 19.1434 13.3037 19.3429 13.2511 19.5768C13.171 19.9334 13.3538 20.315 13.6815 20.4751L13.8075 20.5367L15.645 20.5434C17.5611 20.5504 17.7442 20.5438 18.0433 20.457C18.7478 20.2527 19.3323 19.6403 19.5274 18.9023C19.6102 18.5889 19.6165 18.3971 19.6099 16.3897L19.6035 14.4647L19.5442 14.3303C19.3903 13.9814 18.9917 13.7855 18.6478 13.8898Z" fill="black"/>
</svg>
