<svg width="19" height="19" viewBox="0 0 19 19" fill="none" xmlns="http://www.w3.org/2000/svg">
<path d="M9.10728 14.6794C11.415 14.6794 13.2859 12.8086 13.2859 10.5008C13.2859 8.19308 11.415 6.32227 9.10728 6.32227C6.79953 6.32227 4.92871 8.19308 4.92871 10.5008C4.92871 12.8086 6.79953 14.6794 9.10728 14.6794Z" stroke="#256111" stroke-width="1.5" stroke-linecap="round" stroke-linejoin="round"/>
<path d="M9.10742 9.10742V10.8485L10.5003 11.1967" stroke="#256111" stroke-width="1.5" stroke-linecap="round" stroke-linejoin="round"/>
<path d="M2.14286 2.83984C1.77344 2.83984 1.41917 2.9866 1.15795 3.2478C0.896751 3.50901 0.75 3.86329 0.75 4.2327V16.072C0.75 16.4414 0.896751 16.7957 1.15795 17.0569C1.41917 17.318 1.77344 17.4648 2.14286 17.4648H16.0714C16.4408 17.4648 16.7952 17.318 17.0563 17.0569C17.3175 16.7957 17.4643 16.4414 17.4643 16.072V4.2327C17.4643 3.86329 17.3175 3.50901 17.0563 3.2478C16.7952 2.9866 16.4408 2.83984 16.0714 2.83984H2.14286Z" stroke="#256111" stroke-width="1.5" stroke-linecap="round" stroke-linejoin="round"/>
<path d="M4.23242 0.75V4.92857" stroke="#256111" stroke-width="1.5" stroke-linecap="round" stroke-linejoin="round"/>
<path d="M13.9824 0.75V4.92857" stroke="#256111" stroke-width="1.5" stroke-linecap="round" stroke-linejoin="round"/>
</svg>
