<svg width="16" height="16" viewBox="0 0 16 16" fill="none" xmlns="http://www.w3.org/2000/svg">
<path fill-rule="evenodd" clip-rule="evenodd" d="M7.50399 0.545089C6.0589 0.640657 4.67206 1.15571 3.51199 2.02765C2.96422 2.43936 2.44009 2.96349 2.02838 3.51126C1.33046 4.43981 0.854281 5.52819 0.649353 6.66326C0.308472 8.55138 0.7046 10.502 1.75252 12.0953C2.31287 12.9472 3.05201 13.6864 3.90399 14.2467C4.59486 14.7011 5.41708 15.0599 6.21164 15.2538C8.23527 15.7474 10.3696 15.3822 12.096 14.2467C12.9466 13.6873 13.688 12.9459 14.2475 12.0953C14.7909 11.2691 15.1774 10.3017 15.3503 9.33527C15.6311 7.76536 15.4155 6.17662 14.7291 4.75926C14.3468 3.96976 13.896 3.33507 13.2801 2.71915C12.4201 1.85914 11.4151 1.24808 10.2443 0.873345C9.39094 0.600177 8.42342 0.484289 7.50399 0.545089ZM7.55199 1.68898C6.28204 1.79816 5.16343 2.21754 4.19601 2.9472C3.61758 3.38347 3.03937 4.00906 2.66167 4.60726C2.14268 5.42926 1.83337 6.31205 1.70863 7.32726C1.68097 7.5524 1.68097 8.44613 1.70863 8.67126C1.8725 10.0051 2.37121 11.1533 3.20794 12.1232C3.38345 12.3267 3.7605 12.6988 3.95199 12.8575C4.91036 13.6517 5.99834 14.1186 7.27199 14.2821C7.59054 14.323 8.40945 14.323 8.72799 14.2821C10.0011 14.1186 11.0983 13.6476 12.048 12.8569C12.2471 12.6911 12.6049 12.3381 12.7865 12.1283C13.6184 11.1672 14.1142 10.0402 14.2828 8.72726C14.3237 8.40872 14.3237 7.58981 14.2828 7.27127C14.1194 5.99813 13.6484 4.90096 12.8576 3.95126C12.6919 3.75216 12.3388 3.39432 12.1291 3.21275C11.1755 2.38742 10.0446 1.88712 8.75199 1.71872C8.56167 1.69394 7.73324 1.67339 7.55199 1.68898ZM10.9506 5.05648C10.9146 5.06509 10.8462 5.09535 10.7986 5.1237C10.721 5.16992 10.5064 5.43213 8.73098 7.65048L6.74998 10.1257L5.88348 9.47603C5.40692 9.11872 4.98438 8.81146 4.94449 8.79322C4.85967 8.75442 4.65684 8.74718 4.55105 8.7792C4.39409 8.82669 4.2394 8.98446 4.18284 9.15475C4.1238 9.33248 4.18094 9.58554 4.30911 9.71406C4.3371 9.74213 4.8617 10.1414 5.47492 10.6012C6.67396 11.5005 6.65367 11.4874 6.84691 11.4872C6.96318 11.4871 7.04434 11.4643 7.15052 11.402C7.2287 11.3562 7.44719 11.0887 9.41258 8.63263C10.6091 7.13738 11.6034 5.88098 11.6221 5.84062C11.6495 5.78123 11.656 5.73682 11.6558 5.60726C11.6557 5.45566 11.6528 5.44195 11.601 5.34605C11.5026 5.16414 11.3299 5.05379 11.1308 5.04555C11.0676 5.04296 10.9866 5.04787 10.9506 5.05648Z" fill="black"/>
</svg>
