<svg width="20" height="20" viewBox="0 0 20 20" fill="none" xmlns="http://www.w3.org/2000/svg">
<path fill-rule="evenodd" clip-rule="evenodd" d="M15.5391 4.40911C15.8653 4.73373 15.8667 5.26136 15.5421 5.58762L11.1769 9.97471L15.592 14.412C15.9167 14.7383 15.9153 15.2659 15.5891 15.5906C15.2628 15.9152 14.7352 15.9139 14.4106 15.5876L10.0013 11.1562L5.59203 15.5876C5.26741 15.9139 4.73978 15.9152 4.41352 15.5906C4.08727 15.2659 4.08595 14.7383 4.41057 14.412L8.82573 9.97471L4.46056 5.58762C4.13593 5.26137 4.13726 4.73373 4.46351 4.40911C4.78976 4.08449 5.31739 4.08581 5.64201 4.41206L10.0013 8.79324L14.3606 4.41206C14.6852 4.08581 15.2128 4.08449 15.5391 4.40911Z" fill="#101828"/>
</svg>
