<svg width="21" height="21" viewBox="0 0 21 21" fill="none" xmlns="http://www.w3.org/2000/svg">
<path d="M1.93874 9.31196L9.31099 1.93971C9.62629 1.6244 10.054 1.44727 10.4999 1.44727C10.9458 1.44727 11.3734 1.6244 11.6887 1.93971L19.0609 9.31196C19.3763 9.62726 19.5534 10.0549 19.5534 10.5008C19.5534 10.9467 19.3763 11.3744 19.0609 11.6897L11.6887 19.0619C11.3734 19.3772 10.9458 19.5544 10.4999 19.5544C10.054 19.5544 9.62629 19.3772 9.31099 19.0619L1.93874 11.6897C1.62343 11.3744 1.44629 10.9467 1.44629 10.5008C1.44629 10.0549 1.62343 9.62726 1.93874 9.31196Z" stroke="#256111" stroke-width="1.5" stroke-linejoin="round"/>
<path d="M14.6782 9.10742H7.71387V13.9824" stroke="#256111" stroke-width="1.5" stroke-linecap="round" stroke-linejoin="round"/>
<path d="M11.8926 6.32227L14.6783 9.10798L11.8926 11.8937" stroke="#256111" stroke-width="1.5" stroke-linecap="round" stroke-linejoin="round"/>
</svg>
