<svg width="18" height="18" viewBox="0 0 18 18" fill="none" xmlns="http://www.w3.org/2000/svg">
<path fill-rule="evenodd" clip-rule="evenodd" d="M17.0991 10.8008C17.5961 10.8008 17.999 11.2037 17.999 11.7007L17.999 15.3005C17.999 16.0165 17.7146 16.7032 17.2083 17.2096C16.7019 17.7159 16.0152 18.0003 15.2992 18.0003L2.69999 18.0003C1.98395 18.0003 1.29724 17.7159 0.79092 17.2096C0.284605 16.7032 0.000158082 16.0165 0.000158113 15.3005L0.000158271 11.7007C0.000158292 11.2037 0.403078 10.8008 0.900103 10.8008C1.39713 10.8008 1.80004 11.2037 1.80004 11.7007L1.80004 15.3005C1.80004 15.5392 1.89486 15.7681 2.06363 15.9369C2.23241 16.1056 2.46131 16.2004 2.69999 16.2004L15.2992 16.2004C15.5379 16.2004 15.7668 16.1056 15.9355 15.9369C16.1043 15.7681 16.1991 15.5392 16.1991 15.3005L16.1991 11.7007C16.1991 11.2037 16.6021 10.8008 17.0991 10.8008Z" fill="#1884F7"/>
<path fill-rule="evenodd" clip-rule="evenodd" d="M14.13 6.56046C14.4814 6.91191 14.4814 7.48172 14.13 7.83317L9.63025 12.3329C9.2788 12.6843 8.70899 12.6843 8.35754 12.3329L3.85782 7.83317C3.50637 7.48172 3.50637 6.91191 3.85782 6.56046C4.20927 6.20901 4.77909 6.20901 5.13054 6.56046L8.9939 10.4238L12.8573 6.56046C13.2087 6.20901 13.7785 6.20901 14.13 6.56046Z" fill="#1884F7"/>
<path fill-rule="evenodd" clip-rule="evenodd" d="M8.99361 -3.93378e-08C9.49064 -1.76121e-08 9.89355 0.402918 9.89355 0.899943L9.89355 11.6993C9.89355 12.1963 9.49064 12.5992 8.99361 12.5992C8.49659 12.5992 8.09367 12.1963 8.09367 11.6993L8.09367 0.899943C8.09367 0.402918 8.49659 -6.10634e-08 8.99361 -3.93378e-08Z" fill="#1884F7"/>
</svg>
