<svg width="48" height="48" viewBox="0 0 48 48" fill="none" xmlns="http://www.w3.org/2000/svg">
<rect width="48" height="48" rx="24" fill="#F6F8FB"/>
<path d="M33.6096 23.6195C33.5807 23.5562 32.8963 22.0367 31.3846 20.525C29.3619 18.5055 26.8127 17.4375 24.0002 17.4375C21.1877 17.4375 18.6385 18.5055 16.6182 20.525C15.1064 22.0367 14.4221 23.5562 14.3908 23.6195C14.3379 23.7395 14.3105 23.8692 14.3105 24.0004C14.3105 24.1315 14.3379 24.2613 14.3908 24.3813C14.4197 24.4453 15.1041 25.9641 16.6166 27.4758C18.6385 29.4953 21.1877 30.5625 24.0002 30.5625C26.8127 30.5625 29.3619 29.4953 31.3814 27.4758C32.8939 25.9641 33.5783 24.4453 33.6072 24.3813C33.6605 24.2614 33.6882 24.1318 33.6887 24.0006C33.6891 23.8695 33.6621 23.7397 33.6096 23.6195ZM30.0111 26.1977C28.3338 27.8492 26.3119 28.6875 24.0002 28.6875C21.6885 28.6875 19.6666 27.8492 17.9916 26.1969C17.3325 25.5447 16.7655 24.8056 16.3064 24C16.7657 23.1947 17.3326 22.4559 17.9916 21.8039C19.6674 20.1508 21.6885 19.3125 24.0002 19.3125C26.3119 19.3125 28.333 20.1508 30.0088 21.8039C30.6678 22.4558 31.2348 23.1947 31.6939 24C31.2348 24.8055 30.6678 25.5447 30.0088 26.1969L30.0111 26.1977ZM24.0002 20.5625C23.3203 20.5625 22.6557 20.7641 22.0904 21.1418C21.5251 21.5195 21.0845 22.0564 20.8243 22.6845C20.5642 23.3126 20.4961 24.0038 20.6287 24.6706C20.7614 25.3374 21.0888 25.9499 21.5695 26.4307C22.0502 26.9114 22.6628 27.2388 23.3296 27.3714C23.9964 27.5041 24.6875 27.436 25.3157 27.1758C25.9438 26.9157 26.4806 26.4751 26.8584 25.9098C27.2361 25.3445 27.4377 24.6799 27.4377 24C27.4367 23.0886 27.0742 22.2149 26.4297 21.5705C25.7853 20.926 24.9115 20.5635 24.0002 20.5625ZM24.0002 25.5625C23.6912 25.5625 23.3891 25.4709 23.1321 25.2992C22.8752 25.1275 22.6749 24.8835 22.5566 24.5979C22.4384 24.3124 22.4074 23.9983 22.4677 23.6952C22.528 23.3921 22.6768 23.1137 22.8953 22.8951C23.1139 22.6766 23.3923 22.5278 23.6954 22.4675C23.9985 22.4072 24.3126 22.4382 24.5981 22.5564C24.8836 22.6747 25.1277 22.875 25.2994 23.1319C25.471 23.3889 25.5627 23.691 25.5627 24C25.5627 24.4144 25.3981 24.8118 25.105 25.1049C24.812 25.3979 24.4146 25.5625 24.0002 25.5625Z" fill="#1A212B"/>
</svg>
