<svg width="46" height="46" viewBox="0 0 46 46" fill="none" xmlns="http://www.w3.org/2000/svg">
<rect opacity="0.25" x="0.584519" y="0.584519" width="44.4235" height="44.4235" rx="22.2117" stroke="black" stroke-width="1.16904"/>
<path fill-rule="evenodd" clip-rule="evenodd" d="M15.1527 32.2518C14.2423 32.2518 13.3693 31.8902 12.7256 31.2465C12.0818 30.6028 11.7202 29.7297 11.7202 28.8194V17.3778C11.7202 16.4674 12.0818 15.5944 12.7256 14.9507C13.3693 14.3069 14.2423 13.9453 15.1527 13.9453H31.1709C32.0812 13.9453 32.9543 14.3069 33.598 14.9507C34.2417 15.5944 34.6034 16.4674 34.6034 17.3778V28.8194C34.6034 29.7297 34.2417 30.6028 33.598 31.2465C32.9543 31.8902 32.0812 32.2518 31.1709 32.2518H15.1527ZM18.1561 18.7737C18.0396 18.6741 17.9042 18.599 17.7581 18.5528C17.6119 18.5066 17.458 18.4903 17.3054 18.5047C17.1529 18.5191 17.0047 18.564 16.8698 18.6368C16.735 18.7096 16.6161 18.8087 16.5202 18.9283C16.4244 19.0479 16.3536 19.1856 16.312 19.3331C16.2703 19.4806 16.2588 19.6349 16.278 19.787C16.2971 19.939 16.3467 20.0857 16.4236 20.2182C16.5006 20.3508 16.6034 20.4665 16.7259 20.5585L21.0165 23.9922C21.6253 24.4796 22.3819 24.7452 23.1618 24.7452C23.9417 24.7452 24.6983 24.4796 25.3071 23.9922L29.5977 20.5597C29.715 20.4658 29.8127 20.3497 29.8852 20.218C29.9577 20.0863 30.0035 19.9417 30.0201 19.7923C30.0367 19.6429 30.0237 19.4917 29.9818 19.3474C29.94 19.203 29.8701 19.0684 29.7762 18.951C29.6823 18.8337 29.5662 18.736 29.4345 18.6635C29.3028 18.591 29.1582 18.5452 29.0088 18.5286C28.8594 18.512 28.7082 18.525 28.5639 18.5669C28.4195 18.6087 28.2848 18.6786 28.1675 18.7725L23.8769 22.205C23.674 22.3675 23.4218 22.456 23.1618 22.456C22.9018 22.456 22.6496 22.3675 22.4467 22.205L18.1561 18.7737Z" fill="black"/>
</svg>
