<svg width="20" height="20" viewBox="0 0 20 20" fill="none" xmlns="http://www.w3.org/2000/svg">
<g clip-path="url(#clip0_606_17091)">
<path fill-rule="evenodd" clip-rule="evenodd" d="M12.6626 0.949628L8.36804 5.22607C7.99626 5.59628 7.75037 6.0741 7.66521 6.59184L7.05571 10.2975C6.92391 11.0989 7.1896 11.9144 7.76819 12.4843C8.34677 13.0543 9.16616 13.3076 9.96546 13.1637L13.6224 12.5055C13.6406 12.5022 13.6587 12.4987 13.6768 12.4951V17.7087C13.6768 18.4825 13.0495 19.1098 12.2757 19.1098H2.468C1.69419 19.1098 1.06689 18.4825 1.06689 17.7087V2.29661C1.06689 1.5228 1.69419 0.895508 2.468 0.895508H12.2757C12.4099 0.895508 12.5397 0.914385 12.6626 0.949628Z" fill="#E4FFF4"/>
<path fill-rule="evenodd" clip-rule="evenodd" d="M2.47219 1.78865C2.19149 1.78865 1.96394 2.01619 1.96394 2.29689V17.7089C1.96394 17.9896 2.19149 18.2172 2.47219 18.2172H12.2799C12.5606 18.2172 12.7881 17.9896 12.7881 17.7089V13.334C12.7881 12.8409 13.1879 12.4411 13.681 12.4411C14.1741 12.4411 14.5739 12.8409 14.5739 13.334V17.7089C14.5739 18.9759 13.5468 20.0029 12.2799 20.0029H2.47219C1.20526 20.0029 0.178223 18.9759 0.178223 17.7089V2.29689C0.178223 1.02997 1.20526 0.00292969 2.47219 0.00292969H11.751C12.2441 0.00292969 12.6439 0.402675 12.6439 0.895787C12.6439 1.3889 12.2441 1.78865 11.751 1.78865H2.47219ZM16.7674 0.181501C16.5123 0.181501 16.2596 0.232034 16.024 0.330182C15.7891 0.428011 15.576 0.571217 15.3966 0.751585L9.6322 6.49162C9.52597 6.5974 9.45571 6.73392 9.43139 6.88185L8.8219 10.5876C8.78424 10.8165 8.86016 11.0495 9.02546 11.2123C9.19077 11.3752 9.42488 11.4476 9.65326 11.4065L13.3102 10.7482C13.4541 10.7223 13.5866 10.6529 13.6898 10.5492L19.4299 4.78478C19.6103 4.60543 19.7534 4.39225 19.8513 4.15745C19.9494 3.92186 20 3.66918 20 3.41396C20 3.15875 19.9494 2.90606 19.8513 2.67048C19.7533 2.43538 19.6099 2.22196 19.4293 2.04248L19.4281 2.04133L18.1401 0.753359L18.139 0.752214C17.9594 0.571551 17.746 0.428125 17.511 0.330182C17.2754 0.232034 17.0227 0.181501 16.7674 0.181501ZM6.6755 14.0002C5.98514 14.0002 5.4255 14.5598 5.4255 15.2502C5.4255 15.9405 5.98514 16.5002 6.6755 16.5002H8.0766C8.76696 16.5002 9.3266 15.9405 9.3266 15.2502C9.3266 14.5598 8.76696 14.0002 8.0766 14.0002H6.6755Z" fill="#2D7614"/>
</g>
<defs>
<clipPath id="clip0_606_17091">
<rect width="20" height="20" fill="white"/>
</clipPath>
</defs>
</svg>
