<svg width="16" height="16" viewBox="0 0 16 16" fill="none" xmlns="http://www.w3.org/2000/svg">
<path fill-rule="evenodd" clip-rule="evenodd" d="M0 0.714286C0 0.319797 0.319797 0 0.714286 0H6.42857C6.82306 0 7.14286 0.319797 7.14286 0.714286V3.57143C7.14286 5.54387 5.54387 7.14286 3.57143 7.14286C1.59898 7.14286 0 5.54387 0 3.57143V0.714286ZM15.2857 14.4286C11.4986 14.4286 8.42857 11.3585 8.42857 7.57143C8.42857 3.78433 11.4986 0.714286 15.2857 0.714286H16V14.4286H15.2857Z" fill="#DDFCF3"/>
<path fill-rule="evenodd" clip-rule="evenodd" d="M1.42857 0.714286C1.42857 0.319797 1.10877 0 0.714286 0C0.319797 0 0 0.319797 0 0.714286V3.57143C0 5.19674 1.0857 6.56849 2.57143 7.00097V14.4286C2.57143 14.9808 3.01914 15.4286 3.57143 15.4286C4.12371 15.4286 4.57143 14.9808 4.57143 14.4286V7.00097C6.05715 6.56849 7.14286 5.19674 7.14286 3.57143V0.714286C7.14286 0.319797 6.82306 0 6.42857 0C6.03408 0 5.71429 0.319797 5.71429 0.714286V3.57143C5.71429 4.50445 5.118 5.29818 4.28571 5.59235V0.714286C4.28571 0.319797 3.96592 0 3.57143 0C3.17694 0 2.85714 0.319797 2.85714 0.714286V5.59235C2.02486 5.29818 1.42857 4.50445 1.42857 3.57143V0.714286ZM15.2857 1.42857C11.8931 1.42857 9.14286 4.17882 9.14286 7.57143C9.14286 10.964 11.8931 13.7143 15.2857 13.7143C15.6802 13.7143 16 14.0341 16 14.4286C16 14.8231 15.6802 15.1429 15.2857 15.1429C11.1041 15.1429 7.71429 11.753 7.71429 7.57143C7.71429 3.38984 11.1041 0 15.2857 0C15.6802 0 16 0.319797 16 0.714286C16 1.10878 15.6802 1.42857 15.2857 1.42857ZM15.2857 4.85714C13.7866 4.85714 12.5714 6.07237 12.5714 7.57143C12.5714 9.07049 13.7866 10.2857 15.2857 10.2857C15.6802 10.2857 16 10.6055 16 11C16 11.3945 15.6802 11.7143 15.2857 11.7143C12.9977 11.7143 11.1429 9.85946 11.1429 7.57143C11.1429 5.28339 12.9977 3.42857 15.2857 3.42857C15.6802 3.42857 16 3.74837 16 4.14286C16 4.53735 15.6802 4.85714 15.2857 4.85714Z" fill="#2D7614"/>
</svg>
