<svg width="32" height="32" viewBox="0 0 32 32" fill="none" xmlns="http://www.w3.org/2000/svg">
<path d="M28.2615 1.50928H3.73909C2.50788 1.50928 1.50977 2.50739 1.50977 3.7386V28.261C1.50977 29.4923 2.50788 30.4904 3.73909 30.4904H28.2615C29.4927 30.4904 30.4909 29.4923 30.4909 28.261V3.7386C30.4909 2.50739 29.4927 1.50928 28.2615 1.50928Z" fill="#E4FFF4"/>
<path fill-rule="evenodd" clip-rule="evenodd" d="M3.01887 3.73876C3.01887 3.34116 3.34116 3.01887 3.73876 3.01887H28.2612C28.6587 3.01887 28.9811 3.34116 28.9811 3.73876V28.2612C28.9811 28.6587 28.6587 28.9811 28.2612 28.9811H3.73876C3.34116 28.9811 3.01887 28.6587 3.01887 28.2612V3.73876ZM3.73876 0C1.6739 0 0 1.6739 0 3.73876V28.2612C0 30.3261 1.6739 32 3.73876 32H28.2612C30.3261 32 32 30.3261 32 28.2612V3.73876C32 1.6739 30.3261 0 28.2612 0H3.73876ZM22.3396 6.33962C21.6727 6.33962 21.1321 6.88027 21.1321 7.54717V24.4528C21.1321 25.1196 21.6727 25.6604 22.3396 25.6604H25.0566C25.7234 25.6604 26.2642 25.1196 26.2642 24.4528V7.54717C26.2642 6.88027 25.7234 6.33962 25.0566 6.33962H22.3396ZM13.434 12.3774C13.434 11.7105 13.9746 11.1698 14.6415 11.1698H17.3585C18.0254 11.1698 18.566 11.7105 18.566 12.3774V24.4528C18.566 25.1196 18.0254 25.6604 17.3585 25.6604H14.6415C13.9746 25.6604 13.434 25.1196 13.434 24.4528V12.3774ZM5.73585 17.2075C5.73585 16.5406 6.27649 16 6.9434 16H9.66038C10.3273 16 10.8679 16.5406 10.8679 17.2075V24.4528C10.8679 25.1196 10.3273 25.6604 9.66038 25.6604H6.9434C6.27649 25.6604 5.73585 25.1196 5.73585 24.4528V17.2075Z" fill="#2D7614"/>
</svg>
