<svg width="12" height="12" viewBox="0 0 12 12" fill="none" xmlns="http://www.w3.org/2000/svg">
<path d="M9.64028 4.98469L6.26528 1.60969C6.23045 1.57482 6.18909 1.54716 6.14357 1.52829C6.09804 1.50942 6.04924 1.49971 5.99996 1.49971C5.95068 1.49971 5.90189 1.50942 5.85636 1.52829C5.81084 1.54716 5.76948 1.57482 5.73465 1.60969L2.35965 4.98469C2.28929 5.05505 2.24976 5.15049 2.24976 5.25C2.24976 5.34951 2.28929 5.44495 2.35965 5.51531C2.43002 5.58568 2.52545 5.62521 2.62496 5.62521C2.72448 5.62521 2.81991 5.58568 2.89028 5.51531L5.62496 2.78016V10.125C5.62496 10.2245 5.66447 10.3198 5.7348 10.3902C5.80513 10.4605 5.90051 10.5 5.99996 10.5C6.09942 10.5 6.1948 10.4605 6.26513 10.3902C6.33546 10.3198 6.37496 10.2245 6.37496 10.125V2.78016L9.10965 5.51531C9.18002 5.58568 9.27545 5.62521 9.37496 5.62521C9.47448 5.62521 9.56991 5.58568 9.64028 5.51531C9.71064 5.44495 9.75017 5.34951 9.75017 5.25C9.75017 5.15049 9.71064 5.05505 9.64028 4.98469Z" fill="#17BF33"/>
</svg>
