<svg width="21" height="21" viewBox="0 0 21 21" fill="none" xmlns="http://www.w3.org/2000/svg">
<path d="M2.83887 12.546H6.80014L8.96744 9.10742L12.0317 16.0717L14.3651 12.546H18.1603" stroke="black" stroke-width="1.5" stroke-linecap="round" stroke-linejoin="round"/>
<path d="M14.2951 2.83984H16.7674C17.5367 2.83984 18.1603 3.46345 18.1603 4.2327V18.1613C18.1603 18.9305 17.5367 19.5541 16.7674 19.5541H4.23172C3.46248 19.5541 2.83887 18.9305 2.83887 18.1613V4.2327C2.83887 3.46345 3.46246 2.83984 4.23172 2.83984H6.70405" stroke="black" stroke-width="1.5" stroke-linecap="round" stroke-linejoin="round"/>
<path d="M12.5886 4.92941H8.41002C7.44844 4.92941 6.66895 4.14991 6.66895 3.18834C6.66895 2.22676 7.44844 1.44727 8.41002 1.44727H12.5886C13.5502 1.44727 14.3297 2.22676 14.3297 3.18834C14.3297 4.14991 13.5502 4.92941 12.5886 4.92941Z" stroke="black" stroke-width="1.5" stroke-linecap="round" stroke-linejoin="round"/>
</svg>
