<svg width="12" height="12" viewBox="0 0 12 12" fill="none" xmlns="http://www.w3.org/2000/svg">
<path d="M9.64052 4.98469L6.26552 1.60969C6.23069 1.57482 6.18934 1.54716 6.14381 1.52829C6.09829 1.50942 6.04949 1.49971 6.00021 1.49971C5.95093 1.49971 5.90213 1.50942 5.85661 1.52829C5.81108 1.54716 5.76972 1.57482 5.7349 1.60969L2.3599 4.98469C2.28953 5.05505 2.25 5.15049 2.25 5.25C2.25 5.34951 2.28953 5.44495 2.3599 5.51531C2.43026 5.58568 2.5257 5.62521 2.62521 5.62521C2.72472 5.62521 2.82016 5.58568 2.89052 5.51531L5.62521 2.78016V10.125C5.62521 10.2245 5.66472 10.3198 5.73504 10.3902C5.80537 10.4605 5.90075 10.5 6.00021 10.5C6.09966 10.5 6.19505 10.4605 6.26537 10.3902C6.3357 10.3198 6.37521 10.2245 6.37521 10.125V2.78016L9.1099 5.51531C9.18026 5.58568 9.2757 5.62521 9.37521 5.62521C9.47472 5.62521 9.57016 5.58568 9.64052 5.51531C9.71089 5.44495 9.75042 5.34951 9.75042 5.25C9.75042 5.15049 9.71089 5.05505 9.64052 4.98469Z" fill="#F14A58"/>
</svg>
