<svg width="21" height="21" viewBox="0 0 21 21" fill="none" xmlns="http://www.w3.org/2000/svg">
<path d="M1.44629 6.1243C1.44629 5.46453 1.98114 4.92969 2.6409 4.92969H18.3588C19.0186 4.92969 19.5534 5.46453 19.5534 6.1243V16.9672C19.5534 17.627 19.0186 18.1618 18.3588 18.1618H2.6409C1.98114 18.1618 1.44629 17.627 1.44629 16.9672V6.1243Z" stroke="black" stroke-width="1.5" stroke-linecap="round" stroke-linejoin="round"/>
<path d="M13.9824 9.80469H16.7681" stroke="black" stroke-width="1.5" stroke-linecap="round" stroke-linejoin="round"/>
<path d="M13.9824 12.5898H16.7681" stroke="black" stroke-width="1.5" stroke-linecap="round" stroke-linejoin="round"/>
<path d="M10.5 2.83984V7.01842" stroke="black" stroke-width="1.5" stroke-linecap="round" stroke-linejoin="round"/>
<path d="M4.9873 10.8485C4.9873 11.3103 5.17074 11.7531 5.49725 12.0796C5.82377 12.4061 6.26662 12.5896 6.72838 12.5896C7.19014 12.5896 7.63299 12.4061 7.9595 12.0796C8.28601 11.7531 8.46945 11.3103 8.46945 10.8485C8.46945 10.3867 8.28601 9.94388 7.9595 9.61737C7.63299 9.29086 7.19014 9.10742 6.72838 9.10742C6.26662 9.10742 5.82377 9.29086 5.49725 9.61737C5.17074 9.94388 4.9873 10.3867 4.9873 10.8485Z" stroke="black" stroke-width="1.5" stroke-linecap="round" stroke-linejoin="round"/>
<path d="M6.72824 14.6797C4.8051 14.6797 3.24609 16.2387 3.24609 18.1618H10.2104C10.2104 16.2387 8.65137 14.6797 6.72824 14.6797Z" stroke="black" stroke-width="1.5" stroke-linecap="round" stroke-linejoin="round"/>
</svg>
