<svg width="16" height="16" viewBox="0 0 16 16" fill="none" xmlns="http://www.w3.org/2000/svg">
<path fill-rule="evenodd" clip-rule="evenodd" d="M2.47205 1.06714C2.24525 1.09487 2.09652 1.13687 1.92805 1.22076C1.50476 1.43156 1.20973 1.80626 1.09202 2.28258C1.06679 2.38468 1.0645 2.78358 1.05975 7.89649C1.05602 11.8993 1.05954 13.4439 1.07263 13.5598C1.15369 14.2768 1.7101 14.8397 2.42405 14.9268C2.62769 14.9517 13.3724 14.9517 13.5761 14.9268C14.2826 14.8406 14.8402 14.283 14.9264 13.5765C14.9512 13.3729 14.9512 2.62812 14.9264 2.42449C14.8402 1.71798 14.2826 1.16038 13.5761 1.07415C13.4737 1.06166 11.8544 1.05726 7.97605 1.05894C4.97525 1.06023 2.49845 1.06393 2.47205 1.06714ZM2.4902 2.22494C2.37716 2.2589 2.25687 2.38206 2.22369 2.49777C2.21481 2.52876 2.20805 2.80263 2.20805 3.13238V3.71249H8.00077H13.7935L13.7888 3.10049C13.7845 2.55105 13.7812 2.48319 13.7558 2.43674C13.7195 2.37046 13.6301 2.281 13.5638 2.24476C13.5146 2.2179 13.2383 2.21636 8.02405 2.21382C4.99005 2.21234 2.51554 2.2173 2.4902 2.22494ZM2.21194 9.18849C2.21585 13.2882 2.21753 13.5152 2.24433 13.5642C2.28057 13.6305 2.37002 13.72 2.43631 13.7562C2.48549 13.7831 2.75994 13.7845 8.00005 13.7845C13.2402 13.7845 13.5146 13.7831 13.5638 13.7562C13.6301 13.72 13.7195 13.6305 13.7558 13.5642C13.7826 13.5152 13.7843 13.2882 13.7882 9.18849L13.7923 4.86449H8.00005H2.20783L2.21194 9.18849ZM7.87205 6.11868C7.75445 6.14476 7.69017 6.18086 7.59908 6.27193C7.51031 6.36071 7.46701 6.43935 7.44202 6.55727C7.42977 6.6151 7.42406 6.9775 7.42406 7.69676V8.75145L6.3157 8.75596L5.20733 8.76049L5.10034 8.81318C4.97095 8.87689 4.8622 8.99361 4.81404 9.12049C4.77292 9.22876 4.76938 9.41606 4.8065 9.5182C4.86042 9.66655 4.99997 9.80682 5.15527 9.86881C5.21748 9.89362 5.32921 9.89671 6.32405 9.901L7.42406 9.90574V10.9603C7.42406 12.0535 7.42758 12.1204 7.49172 12.2472C7.53388 12.3305 7.65637 12.4476 7.74993 12.494C7.89609 12.5665 8.10389 12.5665 8.25033 12.494C8.3405 12.4493 8.46836 12.3261 8.51073 12.2431C8.57108 12.1248 8.57605 12.0264 8.57605 10.9502V9.90574L9.67605 9.901C10.8982 9.89572 10.8327 9.90146 10.9901 9.78593C11.1421 9.67433 11.2188 9.52127 11.2192 9.32849C11.2197 9.09959 11.1047 8.9141 10.8998 8.81318L10.7928 8.76049L9.68441 8.75596L8.57605 8.75145V7.69676C8.57605 6.60425 8.5725 6.5365 8.50863 6.41026C8.4682 6.33039 8.34231 6.20449 8.26177 6.1634C8.20279 6.13332 8.04057 6.09486 7.98511 6.09783C7.97133 6.09857 7.92045 6.10794 7.87205 6.11868Z" fill="#256111"/>
</svg>
