<svg width="46" height="46" viewBox="0 0 46 46" fill="none" xmlns="http://www.w3.org/2000/svg">
<rect opacity="0.25" x="0.584519" y="0.584519" width="44.4235" height="44.4235" rx="22.2117" stroke="black" stroke-width="1.16904"/>
<path fill-rule="evenodd" clip-rule="evenodd" d="M18.7044 30.3963H15.1973V19.875H18.7044V30.3963Z" fill="black"/>
<path fill-rule="evenodd" clip-rule="evenodd" d="M16.9404 17.5384H16.9205C15.8739 17.5384 15.1973 16.7586 15.1973 15.7842C15.1973 14.7891 15.8945 14.0312 16.9609 14.0312C18.0274 14.0312 18.6841 14.7891 18.7044 15.7842C18.7044 16.7586 18.0274 17.5384 16.9404 17.5384Z" fill="black"/>
<path fill-rule="evenodd" clip-rule="evenodd" d="M31.5634 30.3961H28.1172V24.8964C28.1172 23.515 27.6185 22.5724 26.3709 22.5724C25.4187 22.5724 24.8516 23.2079 24.6025 23.8217C24.5114 24.0416 24.489 24.3481 24.489 24.6553V30.3963H21.0422C21.0422 30.3963 21.0877 21.0813 21.0422 20.1167H24.489V21.5727C24.9465 20.8728 25.7657 19.875 27.5955 19.875C29.8634 19.875 31.5636 21.3445 31.5636 24.502L31.5634 30.3961Z" fill="black"/>
</svg>
