<svg width="21" height="21" viewBox="0 0 21 21" fill="none" xmlns="http://www.w3.org/2000/svg">
<path d="M16.0709 5.97328C15.8785 5.97328 15.7227 5.81738 15.7227 5.62507C15.7227 5.43276 15.8785 5.27686 16.0709 5.27686" stroke="#5F5F5F" stroke-width="1.5" stroke-linecap="round" stroke-linejoin="round"/>
<path d="M16.0703 5.97328C16.2627 5.97328 16.4185 5.81738 16.4185 5.62507C16.4185 5.43276 16.2627 5.27686 16.0703 5.27686" stroke="#5F5F5F" stroke-width="1.5" stroke-linecap="round" stroke-linejoin="round"/>
<path d="M19.5541 5.62521C19.5541 7.71449 16.072 11.1966 16.072 11.1966C16.072 11.1966 12.5898 7.71449 12.5898 5.62521C12.5898 3.70208 14.1489 2.14307 16.072 2.14307C17.9951 2.14307 19.5541 3.70208 19.5541 5.62521Z" stroke="#5F5F5F" stroke-width="1.5" stroke-linecap="round" stroke-linejoin="round"/>
<path d="M4.92634 13.6339C4.73403 13.6339 4.57812 13.478 4.57812 13.2857C4.57812 13.0934 4.73403 12.9375 4.92634 12.9375" stroke="#5F5F5F" stroke-width="1.5" stroke-linecap="round" stroke-linejoin="round"/>
<path d="M4.92578 13.6339C5.11809 13.6339 5.274 13.478 5.274 13.2857C5.274 13.0934 5.11809 12.9375 4.92578 12.9375" stroke="#5F5F5F" stroke-width="1.5" stroke-linecap="round" stroke-linejoin="round"/>
<path d="M8.4096 13.2859C8.4096 15.3751 4.92746 18.8573 4.92746 18.8573C4.92746 18.8573 1.44531 15.3751 1.44531 13.2859C1.44531 11.3627 3.00432 9.80371 4.92746 9.80371C6.85059 9.80371 8.4096 11.3627 8.4096 13.2859Z" stroke="#5F5F5F" stroke-width="1.5" stroke-linecap="round" stroke-linejoin="round"/>
<path d="M9.80078 16.0718L13.9794 13.2861" stroke="#5F5F5F" stroke-width="1.5" stroke-linecap="round" stroke-linejoin="round"/>
</svg>
