<svg width="126" height="108" viewBox="0 0 126 108" fill="none" xmlns="http://www.w3.org/2000/svg">
<path fill-rule="evenodd" clip-rule="evenodd" d="M56.7043 3.28897L60.5041 0.755743C62.0157 -0.251914 63.9849 -0.251914 65.4964 0.755743L69.2961 3.28897C77.6307 8.8453 83.0821 17.4647 84.7705 26.9303C76.2013 29.6333 68.6869 34.7126 63.0002 41.3952C57.3135 34.7126 49.7992 29.6333 41.2301 26.9303C42.9183 17.4647 48.3699 8.8453 56.7043 3.28897ZM9 40.5C9 38.0147 11.0147 36 13.5 36H27C46.8823 36 63 52.1178 63 72C63 52.1178 79.1177 36 99 36H112.5C114.985 36 117 38.0147 117 40.5V45C117 64.8823 100.882 81 81 81H45C25.1177 81 9 64.8823 9 45V40.5ZM13.7819 82.9809C16.1184 80.0756 15.6576 75.8267 12.7526 73.4902C9.8478 71.1538 5.59881 71.6146 3.26236 74.5195C1.39088 76.8462 0 79.8011 0 83.25C0 88.8111 3.51698 92.9304 7.09782 95.6394C10.7885 98.4312 15.7019 100.658 21.168 102.406C32.1771 105.93 46.9659 108 63 108C79.0341 108 93.8232 105.93 104.832 102.406C110.298 100.658 115.212 98.4312 118.903 95.6394C122.483 92.9304 126 88.8111 126 83.25C126 79.8011 124.609 76.8462 122.737 74.5195C120.401 71.6146 116.152 71.1538 113.247 73.4902C110.343 75.8267 109.882 80.0756 112.218 82.9809C112.305 83.0889 112.369 83.1789 112.414 83.25C112.239 83.5326 111.802 84.0834 110.757 84.8736C108.755 86.3883 105.43 88.0407 100.717 89.5491C91.368 92.5407 78.0319 94.5 63 94.5C47.9681 94.5 34.6319 92.5407 25.2824 89.5491C20.5693 88.0407 17.2451 86.3883 15.243 84.8736C14.1982 84.0834 13.7605 83.5326 13.585 83.25C13.6313 83.1789 13.695 83.0889 13.7819 82.9809ZM112.524 83.0295C112.524 83.0295 112.523 83.0367 112.518 83.0511L112.524 83.0295Z" fill="url(#paint0_linear_606_19928)"/>
<defs>
<linearGradient id="paint0_linear_606_19928" x1="63" y1="0" x2="63" y2="108" gradientUnits="userSpaceOnUse">
<stop stop-color="#FCFCFD"/>
<stop offset="1" stop-color="#FBA183"/>
</linearGradient>
</defs>
</svg>
