<svg width="16" height="16" viewBox="0 0 16 16" fill="none" xmlns="http://www.w3.org/2000/svg">
<g clip-path="url(#clip0_606_18330)">
<path d="M4.71423 4.71387H13.5559L12.6718 12.6715L4.71423 4.71387Z" fill="#DDFCF3"/>
<path d="M0.208713 0.207981C0.487491 -0.070797 0.940887 -0.0704611 1.21987 0.207981L5.0201 4.00821C5.06017 4.00244 5.1012 3.9993 5.14287 3.99927H8.28572V2.28499C8.28593 1.92813 8.50749 1.6081 8.84153 1.48253L11.1272 0.625391C11.5702 0.459296 12.0645 0.683907 12.231 1.12651C12.3972 1.56963 12.1729 2.06395 11.73 2.2303L10 2.87874V3.99927H14.5714C15.0447 3.99927 15.4284 4.38326 15.4286 4.85642C15.4286 5.32981 15.0448 5.71356 14.5714 5.71356H14.163L13.4197 12.4078L15.7913 14.7794C16.0703 15.0584 16.0703 15.5117 15.7913 15.7906C15.5124 16.0695 15.0591 16.0695 14.7801 15.7906L0.208713 1.21915C-0.0697285 0.940153 -0.0700645 0.486759 0.208713 0.207981ZM10 13.7136C10 14.6603 9.2325 15.4279 8.28572 15.4279H3.14287C2.19633 15.4275 1.42858 14.6602 1.42858 13.7136H10ZM6.42858 9.14213L9.85715 12.5707H1.14287C0.66971 12.5704 0.285722 12.1867 0.285722 11.7136C0.285994 11.2406 0.669878 10.8567 1.14287 10.8564H1.66631C2.10719 9.8476 3.11442 9.14233 4.28572 9.14213H6.42858ZM12.1262 11.1142L12.7265 5.71356H6.72546L12.1262 11.1142Z" fill="#2D7614"/>
</g>
<defs>
<clipPath id="clip0_606_18330">
<rect width="16" height="16" fill="white"/>
</clipPath>
</defs>
</svg>
