<svg width="20" height="20" viewBox="0 0 20 20" fill="none" xmlns="http://www.w3.org/2000/svg">
<path fill-rule="evenodd" clip-rule="evenodd" d="M12.4844 0.946698L8.18982 5.22314C7.81804 5.59335 7.57215 6.07117 7.48699 6.58891L6.87749 10.2946C6.74569 11.096 7.01138 11.9115 7.58996 12.4814C8.16855 13.0513 8.98794 13.3047 9.78724 13.1608L13.4442 12.5026C13.4624 12.4993 13.4805 12.4958 13.4986 12.4922V17.7057C13.4986 18.4796 12.8713 19.1069 12.0975 19.1069H2.28978C1.51596 19.1069 0.888672 18.4796 0.888672 17.7057V2.29368C0.888672 1.51987 1.51596 0.892578 2.28978 0.892578H12.0975C12.2317 0.892578 12.3615 0.911455 12.4844 0.946698Z" fill="#E4FFF4"/>
<path fill-rule="evenodd" clip-rule="evenodd" d="M2.29396 1.78572C2.01326 1.78572 1.78572 2.01326 1.78572 2.29396V17.706C1.78572 17.9867 2.01326 18.2143 2.29396 18.2143H12.1016C12.3823 18.2143 12.6099 17.9867 12.6099 17.706V13.331C12.6099 12.8379 13.0096 12.4382 13.5027 12.4382C13.9959 12.4382 14.3956 12.8379 14.3956 13.331V17.706C14.3956 18.973 13.3686 20 12.1016 20H2.29396C1.02704 20 0 18.973 0 17.706V2.29396C0 1.02704 1.02704 0 2.29396 0H11.5728C12.0659 0 12.4657 0.399745 12.4657 0.892857C12.4657 1.38597 12.0659 1.78572 11.5728 1.78572H2.29396ZM16.5892 0.178571C16.3341 0.178571 16.0813 0.229104 15.8458 0.327252C15.6109 0.425081 15.3978 0.568287 15.2183 0.748655L9.45398 6.48869C9.34775 6.59448 9.27749 6.73099 9.25316 6.87892L8.64368 10.5846C8.60602 10.8136 8.68193 11.0466 8.84723 11.2094C9.01255 11.3723 9.24666 11.4446 9.47503 11.4035L13.132 10.7453C13.2759 10.7194 13.4084 10.6499 13.5116 10.5463L19.2516 4.78185C19.4321 4.6025 19.5752 4.38932 19.6731 4.15452C19.7712 3.91893 19.8218 3.66625 19.8218 3.41103C19.8218 3.15582 19.7712 2.90313 19.6731 2.66755C19.5751 2.43245 19.4316 2.21903 19.2511 2.03955L19.2499 2.0384L17.9619 0.75043L17.9608 0.749284C17.7812 0.568621 17.5678 0.425195 17.3328 0.327252C17.0972 0.229104 16.8445 0.178571 16.5892 0.178571ZM6.49728 13.9973C5.80692 13.9973 5.24728 14.5569 5.24728 15.2473C5.24728 15.9376 5.80692 16.4973 6.49728 16.4973H7.89838C8.58873 16.4973 9.14838 15.9376 9.14838 15.2473C9.14838 14.5569 8.58873 13.9973 7.89838 13.9973H6.49728Z" fill="#2D7614"/>
</svg>
