<svg width="21" height="21" viewBox="0 0 21 21" fill="none" xmlns="http://www.w3.org/2000/svg">
<path d="M8.05932 18.8453C7.20336 19.3983 6.18335 19.6394 5.17082 19.5278C4.15829 19.4162 3.21498 18.959 2.49953 18.2327L1.87404 17.6201C1.59983 17.3393 1.44629 16.962 1.44629 16.5692C1.44629 16.1763 1.59983 15.7991 1.87404 15.5182L4.52885 12.8871C4.80699 12.6133 5.18135 12.4599 5.57132 12.4599C5.96128 12.4599 6.33565 12.6133 6.61377 12.8871C6.89425 13.1617 7.27094 13.3155 7.6632 13.3155C8.05545 13.3155 8.43212 13.1617 8.7126 12.8871L12.8825 8.71083C13.0216 8.57354 13.132 8.40992 13.2074 8.22949C13.2828 8.04905 13.3217 7.85541 13.3217 7.65981C13.3217 7.46421 13.2828 7.27056 13.2074 7.09012C13.132 6.90969 13.0216 6.74607 12.8825 6.60878C12.6091 6.33022 12.456 5.95528 12.456 5.56472C12.456 5.17415 12.6091 4.7992 12.8825 4.52065L15.5233 1.87568C15.8039 1.60104 16.1805 1.44727 16.5727 1.44727C16.9651 1.44727 17.3417 1.60104 17.6222 1.87568L18.2338 2.50212C18.9588 3.21869 19.4154 4.16343 19.5268 5.17753C19.6383 6.19162 19.3976 7.21319 18.8453 8.07047C15.9681 12.3174 12.3071 15.9745 8.05932 18.8453Z" stroke="black" stroke-width="1.5" stroke-linecap="round" stroke-linejoin="round"/>
</svg>
