<svg width="45" height="45" viewBox="0 0 45 45" fill="none" xmlns="http://www.w3.org/2000/svg">
<path d="M21.3805 7.32036C22.0126 5.55467 24.5097 5.55467 25.1418 7.32036L28.0712 15.5036C28.3482 16.2775 29.0711 16.8027 29.8927 16.827L38.5807 17.0843C40.4553 17.1398 41.2269 19.5147 39.743 20.6614L32.8655 25.9762C32.2151 26.4789 31.939 27.3286 32.1697 28.1175L34.6098 36.4598C35.1363 38.2598 33.1161 39.7275 31.5669 38.6706L24.3869 33.7721C23.7079 33.3088 22.8144 33.3088 22.1354 33.7721L14.9555 38.6706C13.4063 39.7275 11.3861 38.2598 11.9126 36.4598L14.3526 28.1175C14.5834 27.3286 14.3073 26.4789 13.6569 25.9762L6.77938 20.6614C5.29543 19.5147 6.06707 17.1398 7.94167 17.0843L16.6296 16.827C17.4513 16.8027 18.1741 16.2775 18.4511 15.5036L21.3805 7.32036Z" fill="#D7F729"/>
<path d="M19.5007 6.64837C20.765 3.11721 25.7583 3.11721 27.0225 6.64837L29.9524 14.8315L38.6408 15.0889C42.3896 15.2004 43.9318 19.9506 40.964 22.244L34.0879 27.5577L36.5282 35.9007C37.5805 39.5001 33.5402 42.4356 30.4421 40.3229L23.2616 35.4228L16.0812 40.3229C12.983 42.4356 8.94278 39.5001 9.99509 35.9007L12.4354 27.5577L5.55926 22.244C2.59149 19.9506 4.13368 15.2004 7.88251 15.0889L16.5708 14.8315L19.5007 6.64837ZM20.3317 16.1774C19.7777 17.725 18.3328 18.7756 16.6898 18.8245L8.0015 19.082L14.8796 24.3976C16.1797 25.4028 16.7317 27.1018 16.2704 28.6793L13.8301 37.0223L21.0106 32.1242C22.3686 31.1977 24.1547 31.1977 25.5127 32.1242L32.6931 37.0223L30.2528 28.6793C29.7916 27.1018 30.3435 25.4028 31.6437 24.3976L38.5218 19.082L29.8335 18.8245C28.1905 18.7756 26.7456 17.725 26.1915 16.1774L23.2616 7.99434L20.3317 16.1774Z" fill="#2D7614"/>
</svg>
