<svg width="12" height="12" viewBox="0 0 12 12" fill="none" xmlns="http://www.w3.org/2000/svg">
<path d="M9.64028 7.01531L6.26528 10.3903C6.23045 10.4252 6.18909 10.4528 6.14357 10.4717C6.09804 10.4906 6.04924 10.5003 5.99996 10.5003C5.95068 10.5003 5.90189 10.4906 5.85636 10.4717C5.81084 10.4528 5.76948 10.4252 5.73465 10.3903L2.35965 7.01531C2.28929 6.94495 2.24976 6.84951 2.24976 6.75C2.24976 6.65049 2.28929 6.55505 2.35965 6.48469C2.43002 6.41432 2.52545 6.37479 2.62496 6.37479C2.72448 6.37479 2.81991 6.41432 2.89028 6.48469L5.62496 9.21984V1.875C5.62496 1.77554 5.66447 1.68016 5.7348 1.60984C5.80513 1.53951 5.90051 1.5 5.99996 1.5C6.09942 1.5 6.1948 1.53951 6.26513 1.60984C6.33546 1.68016 6.37496 1.77554 6.37496 1.875V9.21984L9.10965 6.48469C9.18002 6.41432 9.27545 6.37479 9.37496 6.37479C9.47448 6.37479 9.56991 6.41432 9.64028 6.48469C9.71064 6.55505 9.75017 6.65049 9.75017 6.75C9.75017 6.84951 9.71064 6.94495 9.64028 7.01531Z" fill="#F14A58"/>
</svg>
