<svg width="45" height="45" viewBox="0 0 45 45" fill="none" xmlns="http://www.w3.org/2000/svg">
<path d="M28.892 32.2919C29.6144 31.5694 30.7855 31.5694 31.508 32.2919L37.058 37.8419C37.7804 38.5643 37.7804 39.7354 37.058 40.4579C36.3355 41.1803 35.1644 41.1803 34.442 40.4579L28.892 34.9079C28.1695 34.1854 28.1695 33.0143 28.892 32.2919Z" fill="#2D7614"/>
<path d="M33.9 28.05V9.55C33.9 8.52827 33.0717 7.7 32.05 7.7H13.55C12.5283 7.7 11.7 8.52827 11.7 9.55V35.45C11.7 36.4717 12.5283 37.3 13.55 37.3H24.2381C25.2598 37.3 26.0881 38.1283 26.0881 39.15C26.0881 40.1717 25.2598 41 24.2381 41H13.55C10.4848 41 8 38.5152 8 35.45V9.55C8 6.48482 10.4848 4 13.55 4H32.05C35.1152 4 37.6 6.48482 37.6 9.55V28.05C37.6 29.0717 36.7717 29.9 35.75 29.9C34.7283 29.9 33.9 29.0717 33.9 28.05Z" fill="#2D7614"/>
<path d="M13.55 12.3258C13.55 10.7932 14.7925 9.55078 16.325 9.55078H29.275C30.8076 9.55078 32.05 10.7932 32.05 12.3258C32.05 13.8584 30.8076 15.1008 29.275 15.1008H16.325C14.7925 15.1008 13.55 13.8584 13.55 12.3258Z" fill="#D7F729"/>
<path d="M20.95 22.4992C21.9718 22.4992 22.8 23.3275 22.8 24.3492C22.8 25.3709 21.9718 26.1992 20.95 26.1992H15.4C14.3783 26.1992 13.55 25.3709 13.55 24.3492C13.55 23.3275 14.3783 22.4992 15.4 22.4992H20.95ZM24.65 16.9492C25.6718 16.9492 26.5 17.7775 26.5 18.7992C26.5 19.8209 25.6718 20.6492 24.65 20.6492H15.4C14.3783 20.6492 13.55 19.8209 13.55 18.7992C13.55 17.7775 14.3783 16.9492 15.4 16.9492H24.65Z" fill="#2D7614"/>
<path d="M33.9 30.8266C33.9 34.4026 31.001 37.3016 27.425 37.3016C23.8489 37.3016 20.95 34.4026 20.95 30.8266C20.95 27.2505 23.8489 24.3516 27.425 24.3516C31.001 24.3516 33.9 27.2505 33.9 30.8266Z" fill="#D7F729"/>
<path d="M30.2 30.8266C30.2 29.294 28.9575 28.0516 27.425 28.0516C25.8924 28.0516 24.65 29.294 24.65 30.8266C24.65 32.3592 25.8924 33.6016 27.425 33.6016V37.3016C23.8489 37.3016 20.95 34.4026 20.95 30.8266C20.95 27.2505 23.8489 24.3516 27.425 24.3516C31.001 24.3516 33.9 27.2505 33.9 30.8266C33.9 34.4026 31.001 37.3016 27.425 37.3016V33.6016C28.9575 33.6016 30.2 32.3592 30.2 30.8266Z" fill="#2D7614"/>
</svg>
