<svg width="32" height="32" viewBox="0 0 32 32" fill="none" xmlns="http://www.w3.org/2000/svg">
<path fill-rule="evenodd" clip-rule="evenodd" d="M3.99997 6.85756C3.99997 7.64156 4.19734 8.37948 4.54509 9.02433C3.51507 9.86254 2.85711 11.1404 2.85711 12.5718C2.85711 12.7669 2.86931 12.9591 2.89304 13.1477C2.96232 13.1448 3.03199 13.1433 3.102 13.1433H10.6164C10.5467 12.9887 10.4676 12.8247 10.378 12.6518C10.0048 11.9314 9.44799 11.0553 8.61679 10.0578C8.11169 9.45171 8.19359 8.55091 8.79969 8.04581C9.40582 7.54072 10.3066 7.62261 10.8117 8.22872C12.3423 10.0654 13.1431 11.6396 13.5596 12.8057C13.6013 12.9225 13.6392 13.0351 13.6734 13.1433H14.8759C15.0287 10.8204 16.107 8.75027 17.7455 7.29804C16.9072 6.32833 15.6681 5.7147 14.2857 5.7147C13.8537 5.7147 13.4357 5.77464 13.0395 5.88661C12.5943 3.82828 10.763 2.28613 8.57139 2.28613C6.04666 2.28613 3.99997 4.33283 3.99997 6.85756ZM23.4285 8.00042C26.3933 8.00042 28.8306 10.2582 29.1152 13.1481C29.0432 13.1449 28.9707 13.1433 28.898 13.1433H17.7425C18.0292 10.2557 20.4655 8.00042 23.4285 8.00042ZM3.102 16.0004H28.898C29.9799 16.0004 30.8571 16.8776 30.8571 17.9596C30.8571 24.4518 25.5943 29.7147 19.102 29.7147H12.8979C6.40577 29.7147 1.14282 24.4518 1.14282 17.9596C1.14282 16.8776 2.01998 16.0004 3.102 16.0004Z" fill="#256111"/>
</svg>
