<svg width="738" height="738" viewBox="0 0 738 738" fill="none" xmlns="http://www.w3.org/2000/svg">
<path d="M297.012 7.08984C368.591 -7.14805 442.784 0.159289 510.21 28.0879C577.636 56.0166 635.266 103.312 675.813 163.994C716.359 224.676 738 296.019 738 369H709.023C709.023 368.842 709.025 368.684 709.025 368.525C709.025 180.472 556.578 28.0254 368.525 28.0254C180.472 28.0256 28.0247 180.473 28.0247 368.525C28.0247 556.578 180.472 709.025 368.525 709.025C368.683 709.025 368.842 709.024 369 709.023V738C296.019 738 224.676 716.359 163.994 675.812C103.313 635.266 56.0178 577.636 28.0891 510.21C0.160402 442.784 -7.1478 368.591 7.09009 297.012C21.328 225.433 56.4718 159.683 108.077 108.077C159.683 56.4716 225.433 21.3278 297.012 7.08984Z" fill="#DBF740" fill-opacity="0.6"/>
</svg>
