<svg width="45" height="45" viewBox="0 0 45 45" fill="none" xmlns="http://www.w3.org/2000/svg">
<path d="M34.2 29.9008C34.2 36.0311 29.2304 41.0008 23.1 41.0008C16.9696 41.0008 12 36.0311 12 29.9008C12 23.7704 16.9696 18.8008 23.1 18.8008C29.2304 18.8008 34.2 23.7704 34.2 29.9008Z" fill="#D7F729"/>
<path d="M30.5 29.9008C30.5 25.8139 27.1869 22.5008 23.1 22.5008C19.0131 22.5008 15.7 25.8139 15.7 29.9008C15.7 33.9877 19.0131 37.3008 23.1 37.3008V41.0008C16.9696 41.0008 12 36.0311 12 29.9008C12 23.7704 16.9696 18.8008 23.1 18.8008C29.2304 18.8008 34.2 23.7704 34.2 29.9008C34.2 36.0311 29.2304 41.0008 23.1 41.0008V37.3008C27.1869 37.3008 30.5 33.9877 30.5 29.9008Z" fill="#2D7614"/>
<path d="M30.5 26.2V11.4C30.5 7.31309 27.1869 4 23.1 4C19.013 4 15.7 7.31309 15.7 11.4V26.2H19.4H30.5Z" fill="#D7F729"/>
<path d="M26.8 22.5V11.4C26.8 9.35655 25.1434 7.7 23.1 7.7C21.0565 7.7 19.4 9.35655 19.4 11.4V26.2H15.7V11.4C15.7 7.31309 19.013 4 23.1 4C27.1869 4 30.5 7.31309 30.5 11.4V26.2H26.8V22.5Z" fill="#2D7614"/>
<path d="M30.5 29.9C30.5 33.9869 27.1869 37.3 23.1 37.3C19.013 37.3 15.7 33.9869 15.7 29.9C15.7 25.8131 19.013 22.5 23.1 22.5C27.1869 22.5 30.5 25.8131 30.5 29.9Z" fill="#D7F729"/>
<path d="M26.8 29.8992C26.8 31.9427 25.1435 33.5992 23.1 33.5992C21.0566 33.5992 19.4 31.9427 19.4 29.8992C19.4 27.8558 21.0566 26.1992 23.1 26.1992C25.1435 26.1992 26.8 27.8558 26.8 29.8992Z" fill="#2D7614"/>
<path d="M21.25 13.2484C21.25 12.2267 22.0783 11.3984 23.1 11.3984C24.1217 11.3984 24.95 12.2267 24.95 13.2484V28.0484H21.25V13.2484Z" fill="#2D7614"/>
</svg>
