<svg width="24" height="24" viewBox="0 0 24 24" fill="none" xmlns="http://www.w3.org/2000/svg">
<path d="M19.8371 8.43673L10.2371 18.0367C10.1535 18.1206 10.0541 18.1872 9.94474 18.2326C9.83535 18.2781 9.71806 18.3014 9.59961 18.3014C9.48116 18.3014 9.36387 18.2781 9.25447 18.2326C9.14507 18.1872 9.04572 18.1206 8.96211 18.0367L4.76211 13.8367C4.67839 13.753 4.61198 13.6536 4.56667 13.5442C4.52137 13.4349 4.49805 13.3176 4.49805 13.1992C4.49805 13.0808 4.52137 12.9636 4.56667 12.8542C4.61198 12.7448 4.67839 12.6454 4.76211 12.5617C4.84583 12.478 4.94521 12.4116 5.0546 12.3663C5.16398 12.321 5.28121 12.2977 5.39961 12.2977C5.518 12.2977 5.63524 12.321 5.74462 12.3663C5.854 12.4116 5.95339 12.478 6.03711 12.5617L9.60036 16.125L18.5636 7.16323C18.7327 6.99416 18.962 6.89917 19.2011 6.89917C19.4402 6.89917 19.6695 6.99416 19.8386 7.16323C20.0077 7.33231 20.1027 7.56162 20.1027 7.80073C20.1027 8.03984 20.0077 8.26916 19.8386 8.43823L19.8371 8.43673Z" fill="#202020"/>
</svg>
