<svg width="46" height="46" viewBox="0 0 46 46" fill="none" xmlns="http://www.w3.org/2000/svg">
<rect opacity="0.25" x="0.584519" y="0.584519" width="44.4235" height="44.4235" rx="22.2117" stroke="black" stroke-width="1.16904"/>
<path fill-rule="evenodd" clip-rule="evenodd" d="M22.577 19.7919L22.61 20.3481L22.0609 20.28C20.0624 20.0189 18.3164 19.1335 16.8339 17.6465L16.1092 16.9087L15.9225 17.4535C15.5272 18.6681 15.7797 19.9508 16.6033 20.8135C17.0426 21.2902 16.9437 21.3583 16.186 21.0745C15.9225 20.9837 15.6919 20.9156 15.6699 20.9497C15.5931 21.0291 15.8566 22.0621 16.0653 22.4707C16.3508 23.0383 16.9328 23.5945 17.5697 23.9237L18.1077 24.1847L17.4708 24.1961C16.8559 24.1961 16.8339 24.2075 16.8998 24.4458C17.1194 25.1836 17.9869 25.9669 18.9533 26.3074L19.6341 26.5458L19.0411 26.909C18.1626 27.4312 17.1304 27.7263 16.0982 27.749C15.6041 27.7604 15.1978 27.8058 15.1978 27.8398C15.1978 27.9533 16.5374 28.589 17.3171 28.8387C19.6561 29.5765 22.4343 29.2587 24.5206 27.9987C26.0031 27.102 27.4855 25.3199 28.1773 23.5945C28.5507 22.675 28.924 20.9951 28.924 20.1891C28.924 19.667 28.957 19.5989 29.5719 18.9746C29.9343 18.6113 30.2747 18.214 30.3406 18.1005C30.4504 17.8849 30.4394 17.8849 29.8794 18.0778C28.946 18.4184 28.8142 18.373 29.2754 17.8622C29.6158 17.4989 30.0221 16.8406 30.0221 16.6476C30.0221 16.6135 29.8574 16.6703 29.6708 16.7724C29.4731 16.886 29.0339 17.0562 28.7044 17.1584L28.1114 17.3514L27.5734 16.9768C27.2769 16.7724 26.8596 16.5454 26.64 16.4773C26.08 16.3184 25.2234 16.3411 24.7183 16.5227C23.3457 17.0335 22.4782 18.3503 22.577 19.7919Z" fill="black"/>
</svg>
