<svg width="1511" height="962" viewBox="0 0 1511 962" fill="none" xmlns="http://www.w3.org/2000/svg">
<path d="M755.418 961.129V0.5M1294.53 961.129C1366.46 823.683 1408.55 657.337 1408.55 478.116C1408.55 301.236 1367.56 136.895 1297.33 0.5M213.501 0.5C143.279 136.895 102.287 301.236 102.287 478.116C102.287 657.337 144.37 823.683 216.302 961.129M1154.5 961.129C1207.75 823.683 1238.91 657.337 1238.91 478.116C1238.91 301.236 1208.56 136.895 1156.58 0.5M354.258 0.5C302.276 136.895 271.931 301.236 271.931 478.116C271.931 657.337 303.084 823.683 356.332 961.129M981.687 961.129C1010.18 823.683 1026.85 657.337 1026.85 478.116C1026.85 301.236 1010.61 136.895 982.795 0.5M553.484 0.5C525.67 136.895 509.435 301.236 509.435 478.116C509.435 657.337 526.103 823.683 554.596 961.129M0.500155 480.815H1510.34M0.500105 823.826C216.528 869.592 477.977 896.368 759.659 896.368C1037.67 896.368 1295.96 870.286 1510.34 825.607M1510.34 136.021C1295.96 91.3427 1037.67 65.2615 759.659 65.2615C477.977 65.2615 216.529 92.0372 0.500155 137.804M0.500105 734.731C216.528 768.612 477.977 788.432 759.659 788.432C1037.67 788.432 1295.96 769.124 1510.34 736.05M1510.34 225.578C1295.96 192.504 1037.67 173.197 759.659 173.197C477.977 173.197 216.529 193.018 0.500155 226.897M0.500155 624.778C216.528 642.907 477.977 653.512 759.659 653.512C1037.67 653.512 1295.96 643.179 1510.34 625.483M1510.34 352.335C1295.96 334.638 1037.67 324.309 759.659 324.309C477.977 324.309 216.529 334.914 0.500155 353.043M0.5 0.5H1510.34V961.129H0.5V0.5Z" stroke="#61CC3E" stroke-opacity="0.55" stroke-linecap="round" stroke-linejoin="round"/>
</svg>
