<svg width="21" height="21" viewBox="0 0 21 21" fill="none" xmlns="http://www.w3.org/2000/svg">
<path d="M10.5 19.5552H8.20557C7.52126 19.5552 6.93833 19.0581 6.83021 18.3825L5.65999 11.0686C5.6367 10.923 5.625 10.7758 5.625 10.6284V10.2627C5.625 9.52387 5.91849 8.81533 6.44092 8.2929L7.71429 7.01953H10.5" stroke="black" stroke-width="1.5" stroke-linecap="round" stroke-linejoin="round"/>
<path d="M10.5 19.5552H12.7944C13.4787 19.5552 14.0617 19.0581 14.1698 18.3825L15.34 11.0686C15.3633 10.923 15.375 10.7758 15.375 10.6284V10.2627C15.375 9.52387 15.0815 8.81533 14.5591 8.2929L13.2857 7.01953H10.5" stroke="black" stroke-width="1.5" stroke-linecap="round" stroke-linejoin="round"/>
<path d="M9.10742 1.44727H11.8931" stroke="black" stroke-width="1.5" stroke-linecap="round" stroke-linejoin="round"/>
<path d="M10.5 1.44727V3.53655" stroke="black" stroke-width="1.5" stroke-linecap="round" stroke-linejoin="round"/>
<path d="M6.32129 5.27818C6.32129 4.31661 7.10079 3.53711 8.06236 3.53711H12.9374C13.8989 3.53711 14.6784 4.31661 14.6784 5.27818C14.6784 6.23975 13.8989 7.01925 12.9374 7.01925H8.06236C7.10079 7.01925 6.32129 6.23975 6.32129 5.27818Z" stroke="black" stroke-width="1.5" stroke-linejoin="round"/>
</svg>
