<svg width="45" height="45" viewBox="0 0 45 45" fill="none" xmlns="http://www.w3.org/2000/svg">
<path d="M12.7504 25.4486V31.2983L8.85059 32.8178V38.6675H14.7002L19.575 36.7176L27.3745 38.6675H34.6221L34.1991 33.7928L32.2492 31.2983V25.4154L30.2993 20.1436L25.4246 15.6992L16.6501 16.2438L12.7504 25.4486Z" fill="#D7F729"/>
<path d="M18.8722 35.6657C19.4214 34.7397 20.6177 34.4335 21.5438 34.9821L25.1979 37.149H32.9955C32.9992 37.1489 33.0123 37.1483 33.0317 37.1471C33.0727 37.1446 33.1414 37.1386 33.2279 37.1262C33.4124 37.0997 33.625 37.05 33.8105 36.97C33.996 36.8901 34.0817 36.8121 34.1171 36.7663C34.1321 36.747 34.199 36.6655 34.199 36.3988C34.1989 36.1043 34.0753 35.7515 33.6449 35.3058C33.1999 34.845 32.5367 34.4071 31.7578 34.0204C30.9949 33.6417 30.2143 33.3575 29.6137 33.1674C29.3169 33.0734 29.0708 33.0042 28.9035 32.9598C28.82 32.9377 28.7552 32.9221 28.7149 32.9122C28.6952 32.9074 28.6809 32.9045 28.673 32.9027C28.6691 32.9018 28.6662 32.901 28.6654 32.9008H28.6673V32.8989C28.0629 32.7612 27.559 32.3458 27.3116 31.7773L25.7463 28.1784C25.3166 27.191 25.7681 26.0413 26.7555 25.6116C27.7426 25.1821 28.8905 25.6341 29.3205 26.6208L30.5163 29.3704C30.6027 29.3965 30.6957 29.4204 30.7905 29.4504C31.5112 29.6786 32.4924 30.0308 33.4906 30.5263C34.4738 31.0143 35.5731 31.6901 36.4497 32.598C37.3407 33.5209 38.0987 34.7928 38.0988 36.3988C38.0988 37.48 37.7746 38.4116 37.2019 39.1522C36.6502 39.8654 35.9524 40.2942 35.3548 40.5518C34.7572 40.8093 34.1848 40.9281 33.782 40.9859C33.5758 41.0155 33.4 41.0312 33.2698 41.0393C33.2049 41.0433 33.1504 41.0457 33.1079 41.0469C33.0868 41.0475 33.0678 41.0486 33.0527 41.0488H33.0184C33.0176 41.0488 33.0165 41.0488 33.0165 39.0989V41.0488H24.6609C24.3112 41.0486 23.9677 40.9549 23.6669 40.7765L19.5558 38.3372C18.6297 37.788 18.3232 36.5918 18.8722 35.6657Z" fill="#2D7614"/>
<path d="M25.3693 31.5892C26.2839 31.0207 27.4876 31.303 28.0561 32.2176C28.6238 33.1319 28.3436 34.3341 27.4297 34.9025L21.9361 38.3167C21.9037 38.3368 21.8705 38.3556 21.8371 38.3738L17.3413 40.8131C17.056 40.9678 16.7366 41.0492 16.412 41.0492H12.2742V39.0993L12.2723 41.0492H12.24C12.225 41.049 12.2063 41.0479 12.1847 41.0473C12.1416 41.0461 12.0846 41.0454 12.0172 41.0416C11.8827 41.034 11.7007 41.0184 11.4859 40.9902C11.0657 40.9349 10.4709 40.8204 9.84831 40.575C9.23069 40.3316 8.49067 39.922 7.89652 39.2193C7.27203 38.4807 6.90063 37.5259 6.90063 36.3992C6.90071 34.7296 7.76038 33.4406 8.71342 32.5375C9.65783 31.6426 10.8398 30.9783 11.8972 30.4981C12.9727 30.0097 14.0308 29.6609 14.8087 29.4356C14.9418 29.397 15.0684 29.3646 15.1857 29.3327L16.5053 26.5621C16.9679 25.5897 18.1321 25.1762 19.1046 25.6386C20.0771 26.1011 20.4906 27.2653 20.0281 28.2378L18.3162 31.8367C18.0541 32.3879 17.5485 32.7848 16.9509 32.9088H16.9528C16.9515 32.9091 16.9481 32.9097 16.9433 32.9107C16.9337 32.9128 16.9166 32.917 16.8938 32.9221C16.848 32.9324 16.777 32.9491 16.6843 32.9716C16.4974 33.017 16.2238 33.0856 15.8941 33.1811C15.2277 33.3741 14.3585 33.6632 13.5082 34.0494C12.6401 34.4437 11.8964 34.8935 11.3964 35.3671C10.9052 35.8325 10.8005 36.1683 10.8004 36.3992C10.8004 36.6224 10.8571 36.6812 10.8747 36.7019C10.9228 36.7586 11.0405 36.8538 11.2784 36.9476C11.5116 37.0395 11.7728 37.0955 11.9943 37.1247C12.0998 37.1385 12.1855 37.1446 12.2381 37.1475C12.2637 37.1489 12.2807 37.1492 12.2876 37.1494H15.917L19.9443 34.9634L25.3693 31.5892Z" fill="#2D7614"/>
<path d="M23.1036 13.75C23.4587 13.75 23.9185 13.7673 24.4518 13.8376C25.5207 13.9785 26.8815 14.3326 28.3001 15.1743C31.034 16.7966 33.6313 20.0131 35.0333 26.032C36.0151 26.3394 37.1339 26.6409 38.1219 26.8889C38.7859 27.0555 39.3741 27.1953 39.7957 27.2926C40.0056 27.341 40.1738 27.3792 40.2889 27.4049C40.3462 27.4177 40.3909 27.4289 40.4203 27.4354C40.435 27.4386 40.4474 27.4395 40.4546 27.4411C40.4579 27.4418 40.4607 27.4427 40.4622 27.443H40.4641C41.5161 27.6721 42.1839 28.7121 41.9551 29.7642C41.726 30.8162 40.686 31.484 39.6339 31.2552V31.2533H39.6301L39.5824 31.2437C39.5495 31.2365 39.501 31.2251 39.4396 31.2114C39.3166 31.1839 39.1381 31.1441 38.9179 31.0933C38.4779 30.9918 37.8651 30.8465 37.1717 30.6725C35.8033 30.329 34.051 29.8547 32.6988 29.3643C32.0562 29.1313 31.5818 28.5783 31.4497 27.9076C30.2719 21.9296 28.007 19.5344 26.3103 18.5276C24.5504 17.4834 23.0266 17.6631 22.5 17.6631C21.9734 17.6631 20.4496 17.4834 18.6897 18.5276C16.993 19.5344 14.7281 21.9296 13.5503 27.9076C13.4182 28.5783 12.9438 29.1313 12.3012 29.3643C10.9489 29.8547 9.19668 30.329 7.82825 30.6725C7.13486 30.8465 6.5221 30.9918 6.08212 31.0933C5.8619 31.1441 5.68343 31.1839 5.56037 31.2114C5.49902 31.2251 5.45049 31.2365 5.41756 31.2437L5.36995 31.2533H5.36614V31.2552C4.31401 31.484 3.27405 30.8162 3.04494 29.7642C2.81607 28.7121 3.4839 27.6721 4.53592 27.443H4.53782C4.53934 27.4427 4.54214 27.4418 4.54544 27.4411C4.55256 27.4395 4.56501 27.4386 4.57971 27.4354C4.60913 27.4289 4.65386 27.4177 4.7111 27.4049C4.82625 27.3792 4.99436 27.341 5.20429 27.2926C5.62591 27.1953 6.21404 27.0556 6.87807 26.8889C7.86552 26.641 8.98337 26.3393 9.96475 26.032C11.3668 20.0128 13.966 16.7966 16.6999 15.1743C18.1185 14.3326 19.4793 13.9785 20.5482 13.8376C21.0815 13.7673 21.5413 13.75 21.8964 13.75C22.0734 13.75 22.2235 13.7537 22.3362 13.7576C22.4168 13.7604 22.4134 13.7614 22.4695 13.7633H22.5305C22.5866 13.7614 22.5832 13.7604 22.6638 13.7576C22.7765 13.7537 22.9266 13.75 23.1036 13.75Z" fill="#2D7614"/>
<path d="M22.4999 13.7488C24.6537 13.7488 26.3996 12.0028 26.3996 9.84899C26.3996 7.69517 24.6537 5.94922 22.4999 5.94922C20.346 5.94922 18.6001 7.69517 18.6001 9.84899C18.6001 12.0028 20.346 13.7488 22.4999 13.7488Z" fill="#D7F729"/>
<path d="M24.4497 9.84966C24.4497 8.77273 23.5767 7.89977 22.4998 7.89977C21.4229 7.89977 20.5499 8.77273 20.5499 9.84966C20.5499 10.9266 21.4229 11.7995 22.4998 11.7995C23.5767 11.7995 24.4497 10.9266 24.4497 9.84966ZM28.3495 9.84966C28.3495 13.0804 25.7305 15.6993 22.4998 15.6993C19.2691 15.6993 16.6501 13.0804 16.6501 9.84966C16.6501 6.61894 19.2691 4 22.4998 4C25.7305 4 28.3495 6.61894 28.3495 9.84966Z" fill="#2D7614"/>
</svg>
