<svg width="17" height="17" viewBox="0 0 17 17" fill="none" xmlns="http://www.w3.org/2000/svg">
<path fill-rule="evenodd" clip-rule="evenodd" d="M8.33333 1.66667C4.65143 1.66667 1.66667 4.65143 1.66667 8.33333C1.66667 12.0152 4.65143 15 8.33333 15C12.0152 15 15 12.0152 15 8.33333C15 4.65143 12.0152 1.66667 8.33333 1.66667ZM0 8.33333C0 3.73096 3.73096 0 8.33333 0C12.9357 0 16.6667 3.73096 16.6667 8.33333C16.6667 12.9357 12.9357 16.6667 8.33333 16.6667C3.73096 16.6667 0 12.9357 0 8.33333ZM11.4226 6.07741C11.748 6.40285 11.748 6.93049 11.4226 7.25592L8.08926 10.5893C7.76382 10.9147 7.23618 10.9147 6.91074 10.5893L4.82741 8.50592C4.50197 8.18049 4.50197 7.65285 4.82741 7.32741C5.15285 7.00197 5.68049 7.00197 6.00592 7.32741L7.5 8.82149L10.2441 6.07741C10.5695 5.75197 11.0972 5.75197 11.4226 6.07741Z" fill="#007A55"/>
</svg>
