<svg width="31" height="31" viewBox="0 0 31 31" fill="none" xmlns="http://www.w3.org/2000/svg">
<path d="M26.5716 1.42871H3.71443C2.45207 1.42871 1.42871 2.45207 1.42871 3.71443V26.5716C1.42871 27.834 2.45207 28.8573 3.71443 28.8573H26.5716C27.834 28.8573 28.8573 27.834 28.8573 26.5716V3.71443C28.8573 2.45207 27.834 1.42871 26.5716 1.42871Z" fill="#E4FFF4"/>
<path fill-rule="evenodd" clip-rule="evenodd" d="M2.85714 1.42857C2.85714 0.639593 2.21755 0 1.42857 0C0.639593 0 0 0.639593 0 1.42857V28.8571C0 29.6462 0.639593 30.2857 1.42857 30.2857H28.8571C29.6462 30.2857 30.2857 29.6462 30.2857 28.8571C30.2857 28.0681 29.6462 27.4286 28.8571 27.4286H2.85714V1.42857ZM22.0197 4.37253C21.5789 4.05771 21.0293 3.93513 20.4966 4.03278C19.9638 4.13042 19.4935 4.43995 19.1931 4.89061L11.4034 16.575L7.98565 13.1572C7.20459 12.3762 5.93826 12.3762 5.15721 13.1572C4.37616 13.9383 4.37616 15.2046 5.15721 15.9856L10.3001 21.1285C10.7238 21.5522 11.3151 21.7636 11.9114 21.7045C12.5076 21.6455 13.046 21.3222 13.3784 20.8237L21.3755 8.82804L27.6946 13.3418C28.5936 13.9838 29.8425 13.7756 30.4846 12.8768C31.1266 11.9779 30.9184 10.7288 30.0197 10.0868L22.0197 4.37253Z" fill="#2D7614"/>
</svg>
