<svg width="86" height="33" viewBox="0 0 86 33" fill="none" xmlns="http://www.w3.org/2000/svg">
<path d="M21.9565 1.74377C20.9806 2.51878 20.8722 4.13339 20.94 4.84382C20.94 4.84382 20.94 12.8308 20.7905 18.4065C20.7313 20.6144 20.6487 22.4442 20.5334 23.2503C20.1268 26.092 17.8091 31.7367 11.7914 31.5817C4.26932 31.3879 3.45611 24.9941 2.84621 23.8316C2.35829 22.9016 0.745436 22.5399 0 22.4753C2.64291 32.7442 11.5881 33.5192 18.0938 31.7754C23.2983 30.3804 25.4713 24.3389 26.2258 21.894C27.14 18.9317 26.9031 3.58797 26.8462 0.530354C26.8408 0.239866 26.5891 0.0225154 26.3011 0.0611346C24.5156 0.30059 23.0674 0.861469 21.9565 1.74377Z" fill="#256111"/>
<rect x="30.4944" y="5.42676" width="5.69242" height="27.1254" rx="0.5" fill="#256111"/>
<path d="M44.621 5.42676H40.1359C39.7948 5.42676 39.5538 5.76088 39.6615 6.0846L48.3532 32.21C48.4212 32.4143 48.6123 32.5521 48.8276 32.5521H53.8413C54.0605 32.5521 54.254 32.4095 54.3189 32.2002L62.418 6.07481C62.5178 5.75307 62.2773 5.42676 61.9404 5.42676H61.5455C61.3293 5.42676 61.1377 5.56561 61.0703 5.77096L53.6534 28.3895C53.5035 28.8466 52.8577 28.8491 52.7044 28.3931L45.0949 5.76737C45.0264 5.56385 44.8357 5.42676 44.621 5.42676Z" fill="#256111"/>
<path d="M66.6867 12.4871C66.423 13.3666 65.4291 13.6266 64.7011 13.6591C64.4436 13.6706 64.2466 13.4546 64.2771 13.1986C64.5097 11.246 66.1664 6.59569 71.7692 5.70577C77.8684 4.737 80.3076 6.48072 82.5439 8.0308C84.6648 9.50088 85.7968 12.81 86.0001 14.4246L85.8023 31.9493C85.7992 32.2232 85.5763 32.4436 85.3024 32.4436H81.2026C80.931 32.4436 80.7091 32.2269 80.7027 31.9554L80.3289 16.1026C80.3197 15.7098 79.8811 15.479 79.5493 15.6895C78.5786 16.3052 77.2732 17.0927 76.6482 17.3309C75.6317 17.7184 72.1755 18.261 70.5491 18.8809C69.5325 19.2683 68.6517 20.2372 68.1096 20.8185C67.4319 21.5935 66.2799 23.7635 67.0933 26.2436C67.9066 28.7236 71.0914 29.3436 72.5822 29.3436C73.8698 29.279 76.6889 28.7236 77.6647 27.0186C78.6406 25.3135 78.2069 23.9831 77.868 23.531C77.5775 23.1434 77.2175 23.221 77.0548 22.756C76.9425 22.4348 77.147 21.972 77.3735 21.6099C77.5197 21.3764 77.8392 21.3468 78.0247 21.5505C78.9893 22.6098 79.0877 23.9773 79.0878 24.4998C79.0877 25.081 79.1693 26.1273 77.868 28.7623C76.2414 32.0561 71.7689 32.5521 70.9557 32.5521C70.1425 32.5521 62.416 31.9709 61.8074 25.4685C61.193 18.9042 69.5327 17.3309 70.7525 17.1371C74.6141 16.5237 77.4603 17.4394 79.2911 14.4246C81.1128 11.4248 79.088 8.99957 78.2748 8.41831C77.4616 7.83706 75.8352 6.09328 71.7692 6.67454C68.5164 7.13955 67.2966 9.58083 67.0933 10.7433C67.0255 11.0663 66.8493 11.8671 66.6867 12.4871Z" fill="#256111"/>
</svg>
