<svg width="32" height="29" viewBox="0 0 32 29" fill="none" xmlns="http://www.w3.org/2000/svg">
<path d="M6.85156 11.5831H10.8516L16.4516 2.5774C17.7528 0.503723 21.1148 1.40777 21.1373 3.90311V10.4403H27.9373C28.3169 10.4427 28.6916 10.5266 29.0358 10.6864C29.3803 10.8461 29.6863 11.0779 29.9334 11.3661C30.1803 11.6543 30.3626 11.9922 30.4678 12.3569C30.5729 12.7217 30.5985 13.1048 30.543 13.4803L28.7144 24.7717C28.6365 25.4021 28.3309 25.9822 27.8552 26.403C27.3796 26.824 26.7668 27.0567 26.1316 27.0574H6.85156" fill="#E4FFF4"/>
<path fill-rule="evenodd" clip-rule="evenodd" d="M4 26.4861C4 27.5905 3.10457 28.4861 2 28.4861C0.895431 28.4861 0 27.5905 0 26.4861V12.1546C0 11.05 0.895431 10.1546 2 10.1546C3.10457 10.1546 4 11.05 4 12.1546V26.4861ZM8.28 28.4861C7.49102 28.4861 6.85143 27.8465 6.85143 27.0575C6.85143 26.2685 7.49102 25.6289 8.28 25.6289H26.1305C26.4171 25.6285 26.6937 25.5233 26.9083 25.3334C27.1232 25.1432 27.2613 24.881 27.2965 24.5962C27.2987 24.5786 27.3013 24.561 27.304 24.5434L29.1307 13.2633C29.155 13.0926 29.1429 12.9186 29.0951 12.7529C29.0466 12.5847 28.9625 12.4289 28.8485 12.2959C28.7346 12.163 28.5934 12.0561 28.4345 11.9824C28.2768 11.9093 28.1054 11.8706 27.9317 11.869H21.1371C20.3482 11.869 19.7086 11.2294 19.7086 10.4404V3.91092C19.7019 3.40464 19.3861 3.0405 18.8924 2.9037C18.3892 2.76429 17.9225 2.92274 17.6627 3.3349L17.6615 3.33687L12.0646 12.3376C11.8039 12.7569 11.3451 13.0118 10.8514 13.0118H8.28C7.49102 13.0118 6.85143 12.3722 6.85143 11.5832C6.85143 10.7943 7.49102 10.1547 8.28 10.1547H10.0575L15.2383 1.82315L15.2414 1.81819C17.2817 -1.43327 22.53 -0.0687888 22.5656 3.89037L22.5657 9.01182H27.9371L27.9463 9.01184C28.5305 9.01561 29.107 9.14475 29.6368 9.39053C30.1669 9.63632 30.6377 9.99303 31.0178 10.4365C31.3979 10.88 31.6784 11.4 31.8402 11.9612C32.0021 12.5225 32.0416 13.112 31.9559 13.6898L31.9531 13.7088L30.1282 24.9766C30.0018 25.9412 29.5307 26.8278 28.8018 27.473C28.0656 28.1247 27.1166 28.4849 26.133 28.4861H8.28Z" fill="#2D7614"/>
</svg>
