<svg width="16" height="16" viewBox="0 0 16 16" fill="none" xmlns="http://www.w3.org/2000/svg">
<path d="M2.42859 5.857C2.42859 4.59464 3.45194 3.57129 4.7143 3.57129H11.2857C12.5481 3.57129 13.5714 4.59464 13.5714 5.857V14.1427C13.5714 14.7739 13.0598 15.2856 12.4286 15.2856H3.57145C2.94027 15.2856 2.42859 14.7739 2.42859 14.1427V5.857Z" fill="#DDFCF3"/>
<path fill-rule="evenodd" clip-rule="evenodd" d="M3.42858 1.71429C3.42858 0.767512 4.19609 0 5.14287 0H10.8572C11.8039 0 12.5714 0.767512 12.5714 1.71429V3.14584C13.585 3.62733 14.2857 4.6604 14.2857 5.85714V14.1429C14.2857 15.1686 13.4543 16 12.4286 16H3.57144C2.54577 16 1.71429 15.1686 1.71429 14.1429V5.85714C1.71429 4.6604 2.41503 3.62733 3.42858 3.14584V1.71429ZM5.42858 8.57143C4.9552 8.57143 4.57144 8.95519 4.57144 9.42857C4.57144 9.90195 4.9552 10.2857 5.42858 10.2857H7.14287V12C7.14287 12.4734 7.52663 12.8571 8.00001 12.8571C8.47339 12.8571 8.85715 12.4734 8.85715 12V10.2857H10.5714C11.0448 10.2857 11.4286 9.90195 11.4286 9.42857C11.4286 8.95519 11.0448 8.57143 10.5714 8.57143H8.85715V6.85714C8.85715 6.38376 8.47339 6 8.00001 6C7.52663 6 7.14287 6.38376 7.14287 6.85714V8.57143H5.42858ZM3.14287 5.85714C3.14287 4.98927 3.84642 4.28571 4.71429 4.28571H11.2857C12.1536 4.28571 12.8572 4.98927 12.8572 5.85714V14.1429C12.8572 14.3795 12.6653 14.5714 12.4286 14.5714H3.57144C3.33474 14.5714 3.14287 14.3795 3.14287 14.1429V5.85714Z" fill="#2D7614"/>
</svg>
