<svg width="413" height="232" viewBox="0 0 413 232" fill="none" xmlns="http://www.w3.org/2000/svg">
<g opacity="0.52">
<rect x="0.5" y="0.5" width="26.4103" height="19.25" stroke="#6B7280" stroke-opacity="0.2"/>
<rect x="0.5" y="19.75" width="26.4103" height="19.25" fill="#6B7280" fill-opacity="0.05" stroke="#6B7280" stroke-opacity="0.2"/>
<rect x="0.5" y="39" width="26.4103" height="19.25" stroke="#6B7280" stroke-opacity="0.2"/>
<rect x="0.5" y="58.25" width="26.4103" height="19.25" stroke="#6B7280" stroke-opacity="0.2"/>
<rect x="0.5" y="77.5" width="26.4103" height="19.25" fill="#6B7280" fill-opacity="0.05" stroke="#6B7280" stroke-opacity="0.2"/>
<rect x="0.5" y="96.75" width="26.4103" height="19.25" stroke="#6B7280" stroke-opacity="0.2"/>
<rect x="0.5" y="116" width="26.4103" height="19.25" stroke="#6B7280" stroke-opacity="0.2"/>
<rect x="0.5" y="135.25" width="26.4103" height="19.25" stroke="#6B7280" stroke-opacity="0.2"/>
<rect x="0.5" y="154.5" width="26.4103" height="19.25" stroke="#6B7280" stroke-opacity="0.2"/>
<rect x="0.5" y="173.75" width="26.4103" height="19.25" stroke="#6B7280" stroke-opacity="0.2"/>
<rect x="0.5" y="193" width="26.4103" height="19.25" stroke="#6B7280" stroke-opacity="0.2"/>
<rect x="0.5" y="212.25" width="26.4103" height="19.25" stroke="#6B7280" stroke-opacity="0.2"/>
<rect x="26.9102" y="0.5" width="26.4103" height="19.25" stroke="#6B7280" stroke-opacity="0.2"/>
<rect x="26.9102" y="19.75" width="26.4103" height="19.25" stroke="#6B7280" stroke-opacity="0.2"/>
<rect x="26.9102" y="39" width="26.4103" height="19.25" stroke="#6B7280" stroke-opacity="0.2"/>
<rect x="26.9102" y="58.25" width="26.4103" height="19.25" stroke="#6B7280" stroke-opacity="0.2"/>
<rect x="26.9102" y="77.5" width="26.4103" height="19.25" stroke="#6B7280" stroke-opacity="0.2"/>
<rect x="26.9102" y="96.75" width="26.4103" height="19.25" stroke="#6B7280" stroke-opacity="0.2"/>
<rect x="26.9102" y="116" width="26.4103" height="19.25" fill="#6B7280" fill-opacity="0.05" stroke="#6B7280" stroke-opacity="0.2"/>
<rect x="26.9102" y="135.25" width="26.4103" height="19.25" stroke="#6B7280" stroke-opacity="0.2"/>
<rect x="26.9102" y="154.5" width="26.4103" height="19.25" stroke="#6B7280" stroke-opacity="0.2"/>
<rect x="26.9102" y="173.75" width="26.4103" height="19.25" stroke="#6B7280" stroke-opacity="0.2"/>
<rect x="26.9102" y="193" width="26.4103" height="19.25" stroke="#6B7280" stroke-opacity="0.2"/>
<rect x="26.9102" y="212.25" width="26.4103" height="19.25" fill="#6B7280" fill-opacity="0.05" stroke="#6B7280" stroke-opacity="0.2"/>
<rect x="53.3203" y="0.5" width="26.4103" height="19.25" stroke="#6B7280" stroke-opacity="0.2"/>
<rect x="53.3203" y="19.75" width="26.4103" height="19.25" stroke="#6B7280" stroke-opacity="0.2"/>
<rect x="53.3203" y="39" width="26.4103" height="19.25" stroke="#6B7280" stroke-opacity="0.2"/>
<rect x="53.3203" y="58.25" width="26.4103" height="19.25" stroke="#6B7280" stroke-opacity="0.2"/>
<rect x="53.3203" y="77.5" width="26.4103" height="19.25" stroke="#6B7280" stroke-opacity="0.2"/>
<rect x="53.3203" y="96.75" width="26.4103" height="19.25" stroke="#6B7280" stroke-opacity="0.2"/>
<rect x="53.3203" y="116" width="26.4103" height="19.25" stroke="#6B7280" stroke-opacity="0.2"/>
<rect x="53.3203" y="135.25" width="26.4103" height="19.25" stroke="#6B7280" stroke-opacity="0.2"/>
<rect x="53.3203" y="154.5" width="26.4103" height="19.25" stroke="#6B7280" stroke-opacity="0.2"/>
<rect x="53.3203" y="173.75" width="26.4103" height="19.25" stroke="#6B7280" stroke-opacity="0.2"/>
<rect x="53.3203" y="193" width="26.4103" height="19.25" stroke="#6B7280" stroke-opacity="0.2"/>
<rect x="53.3203" y="212.25" width="26.4103" height="19.25" stroke="#6B7280" stroke-opacity="0.2"/>
<rect x="79.7305" y="0.5" width="26.4103" height="19.25" stroke="#6B7280" stroke-opacity="0.2"/>
<rect x="79.7305" y="19.75" width="26.4103" height="19.25" stroke="#6B7280" stroke-opacity="0.2"/>
<rect x="79.7305" y="39" width="26.4103" height="19.25" fill="#6B7280" fill-opacity="0.05" stroke="#6B7280" stroke-opacity="0.2"/>
<rect x="79.7305" y="58.25" width="26.4103" height="19.25" stroke="#6B7280" stroke-opacity="0.2"/>
<rect x="79.7305" y="77.5" width="26.4103" height="19.25" stroke="#6B7280" stroke-opacity="0.2"/>
<rect x="79.7305" y="96.75" width="26.4103" height="19.25" stroke="#6B7280" stroke-opacity="0.2"/>
<rect x="79.7305" y="116" width="26.4103" height="19.25" stroke="#6B7280" stroke-opacity="0.2"/>
<rect x="79.7305" y="135.25" width="26.4103" height="19.25" stroke="#6B7280" stroke-opacity="0.2"/>
<rect x="79.7305" y="154.5" width="26.4103" height="19.25" stroke="#6B7280" stroke-opacity="0.2"/>
<rect x="79.7305" y="173.75" width="26.4103" height="19.25" stroke="#6B7280" stroke-opacity="0.2"/>
<rect x="79.7305" y="193" width="26.4103" height="19.25" stroke="#6B7280" stroke-opacity="0.2"/>
<rect x="79.7305" y="212.25" width="26.4103" height="19.25" stroke="#6B7280" stroke-opacity="0.2"/>
<rect x="106.141" y="0.5" width="26.4103" height="19.25" stroke="#6B7280" stroke-opacity="0.2"/>
<rect x="106.141" y="19.75" width="26.4103" height="19.25" stroke="#6B7280" stroke-opacity="0.2"/>
<rect x="106.141" y="39" width="26.4103" height="19.25" stroke="#6B7280" stroke-opacity="0.2"/>
<rect x="106.141" y="58.25" width="26.4103" height="19.25" stroke="#6B7280" stroke-opacity="0.2"/>
<rect x="106.141" y="77.5" width="26.4103" height="19.25" fill="#6B7280" fill-opacity="0.05" stroke="#6B7280" stroke-opacity="0.2"/>
<rect x="106.141" y="96.75" width="26.4103" height="19.25" stroke="#6B7280" stroke-opacity="0.2"/>
<rect x="106.141" y="116" width="26.4103" height="19.25" fill="#6B7280" fill-opacity="0.05" stroke="#6B7280" stroke-opacity="0.2"/>
<rect x="106.141" y="135.25" width="26.4103" height="19.25" stroke="#6B7280" stroke-opacity="0.2"/>
<rect x="106.141" y="154.5" width="26.4103" height="19.25" stroke="#6B7280" stroke-opacity="0.2"/>
<rect x="106.141" y="173.75" width="26.4103" height="19.25" fill="#6B7280" fill-opacity="0.05" stroke="#6B7280" stroke-opacity="0.2"/>
<rect x="106.141" y="193" width="26.4103" height="19.25" stroke="#6B7280" stroke-opacity="0.2"/>
<rect x="106.141" y="212.25" width="26.4103" height="19.25" stroke="#6B7280" stroke-opacity="0.2"/>
<rect x="132.551" y="0.5" width="26.4103" height="19.25" stroke="#6B7280" stroke-opacity="0.2"/>
<rect x="132.551" y="19.75" width="26.4103" height="19.25" stroke="#6B7280" stroke-opacity="0.2"/>
<rect x="132.551" y="39" width="26.4103" height="19.25" stroke="#6B7280" stroke-opacity="0.2"/>
<rect x="132.551" y="58.25" width="26.4103" height="19.25" stroke="#6B7280" stroke-opacity="0.2"/>
<rect x="132.551" y="77.5" width="26.4103" height="19.25" stroke="#6B7280" stroke-opacity="0.2"/>
<rect x="132.551" y="96.75" width="26.4103" height="19.25" stroke="#6B7280" stroke-opacity="0.2"/>
<rect x="132.551" y="116" width="26.4103" height="19.25" stroke="#6B7280" stroke-opacity="0.2"/>
<rect x="132.551" y="135.25" width="26.4103" height="19.25" stroke="#6B7280" stroke-opacity="0.2"/>
<rect x="132.551" y="154.5" width="26.4103" height="19.25" fill="#6B7280" fill-opacity="0.05" stroke="#6B7280" stroke-opacity="0.2"/>
<rect x="132.551" y="173.75" width="26.4103" height="19.25" stroke="#6B7280" stroke-opacity="0.2"/>
<rect x="132.551" y="193" width="26.4103" height="19.25" stroke="#6B7280" stroke-opacity="0.2"/>
<rect x="132.551" y="212.25" width="26.4103" height="19.25" stroke="#6B7280" stroke-opacity="0.2"/>
<rect x="158.961" y="19.75" width="26.4103" height="19.25" stroke="#6B7280" stroke-opacity="0.2"/>
<rect x="158.961" y="39" width="26.4103" height="19.25" stroke="#6B7280" stroke-opacity="0.2"/>
<rect x="158.961" y="58.25" width="26.4103" height="19.25" stroke="#6B7280" stroke-opacity="0.2"/>
<rect x="158.961" y="77.5" width="26.4103" height="19.25" fill="#6B7280" fill-opacity="0.05" stroke="#6B7280" stroke-opacity="0.2"/>
<rect x="158.961" y="96.75" width="26.4103" height="19.25" stroke="#6B7280" stroke-opacity="0.2"/>
<rect x="158.961" y="116" width="26.4103" height="19.25" stroke="#6B7280" stroke-opacity="0.2"/>
<rect x="158.961" y="135.25" width="26.4103" height="19.25" stroke="#6B7280" stroke-opacity="0.2"/>
<rect x="158.961" y="154.5" width="26.4103" height="19.25" stroke="#6B7280" stroke-opacity="0.2"/>
<rect x="158.961" y="173.75" width="26.4103" height="19.25" stroke="#6B7280" stroke-opacity="0.2"/>
<rect x="158.961" y="193" width="26.4103" height="19.25" stroke="#6B7280" stroke-opacity="0.2"/>
<rect x="158.961" y="212.25" width="26.4103" height="19.25" stroke="#6B7280" stroke-opacity="0.2"/>
<rect x="185.371" y="39" width="26.4103" height="19.25" stroke="#6B7280" stroke-opacity="0.2"/>
<rect x="185.371" y="58.25" width="26.4103" height="19.25" stroke="#6B7280" stroke-opacity="0.2"/>
<rect x="185.371" y="77.5" width="26.4103" height="19.25" stroke="#6B7280" stroke-opacity="0.2"/>
<rect x="185.371" y="96.75" width="26.4103" height="19.25" stroke="#6B7280" stroke-opacity="0.2"/>
<rect x="185.371" y="96.75" width="26.4103" height="19.25" fill="#6B7280" fill-opacity="0.05" stroke="#6B7280" stroke-opacity="0.2"/>
<rect x="185.371" y="116" width="26.4103" height="19.25" stroke="#6B7280" stroke-opacity="0.2"/>
<rect x="185.371" y="135.25" width="26.4103" height="19.25" stroke="#6B7280" stroke-opacity="0.2"/>
<rect x="185.371" y="154.5" width="26.4103" height="19.25" stroke="#6B7280" stroke-opacity="0.2"/>
<rect x="185.371" y="173.75" width="26.4103" height="19.25" stroke="#6B7280" stroke-opacity="0.2"/>
<rect x="185.371" y="193" width="26.4103" height="19.25" fill="#6B7280" fill-opacity="0.05" stroke="#6B7280" stroke-opacity="0.2"/>
<rect x="211.781" y="58.25" width="26.4103" height="19.25" fill="#6B7280" fill-opacity="0.05" stroke="#6B7280" stroke-opacity="0.2"/>
<rect x="211.781" y="77.5" width="26.4103" height="19.25" stroke="#6B7280" stroke-opacity="0.2"/>
<rect x="211.781" y="96.75" width="26.4103" height="19.25" stroke="#6B7280" stroke-opacity="0.2"/>
<rect x="211.781" y="116" width="26.4103" height="19.25" stroke="#6B7280" stroke-opacity="0.2"/>
<rect x="211.781" y="135.25" width="26.4103" height="19.25" stroke="#6B7280" stroke-opacity="0.2"/>
<rect x="211.781" y="154.5" width="26.4103" height="19.25" stroke="#6B7280" stroke-opacity="0.2"/>
<rect x="211.781" y="173.75" width="26.4103" height="19.25" stroke="#6B7280" stroke-opacity="0.2"/>
<rect x="238.191" y="77.5" width="26.4103" height="19.25" stroke="#6B7280" stroke-opacity="0.2"/>
<rect x="238.191" y="96.75" width="26.4103" height="19.25" stroke="#6B7280" stroke-opacity="0.2"/>
<rect x="238.191" y="116" width="26.4103" height="19.25" stroke="#6B7280" stroke-opacity="0.2"/>
<rect x="238.191" y="135.25" width="26.4103" height="19.25" fill="#6B7280" fill-opacity="0.05" stroke="#6B7280" stroke-opacity="0.2"/>
<rect x="238.191" y="154.5" width="26.4103" height="19.25" stroke="#6B7280" stroke-opacity="0.2"/>
<ellipse cx="158.962" cy="96.7501" rx="0.880342" ry="0.641667" fill="#6B7280"/>
<ellipse cx="155.439" cy="96.7501" rx="0.880342" ry="0.641667" fill="#6B7280" fill-opacity="0.9"/>
<ellipse cx="151.919" cy="96.7501" rx="0.880342" ry="0.641667" fill="#6B7280" fill-opacity="0.8"/>
<ellipse cx="148.396" cy="96.7501" rx="0.880342" ry="0.641667" fill="#6B7280" fill-opacity="0.7"/>
<ellipse cx="144.876" cy="96.7501" rx="0.880342" ry="0.641667" fill="#6B7280" fill-opacity="0.6"/>
<ellipse cx="141.353" cy="96.7501" rx="0.880342" ry="0.641667" fill="#6B7280" fill-opacity="0.5"/>
<ellipse cx="137.833" cy="96.7501" rx="0.880342" ry="0.641667" fill="#6B7280" fill-opacity="0.4"/>
<ellipse cx="134.31" cy="96.7501" rx="0.880342" ry="0.641667" fill="#6B7280" fill-opacity="0.3"/>
<ellipse cx="130.79" cy="96.7501" rx="0.880342" ry="0.641667" fill="#6B7280" fill-opacity="0.3"/>
<ellipse cx="127.267" cy="96.7501" rx="0.880342" ry="0.641667" fill="#6B7280" fill-opacity="0.2"/>
<ellipse cx="123.748" cy="96.7501" rx="0.880342" ry="0.641667" fill="#6B7280" fill-opacity="0.1"/>
<ellipse cx="328.576" cy="96.7501" rx="0.880342" ry="0.641667" fill="#6B7280"/>
<ellipse cx="325.052" cy="96.7501" rx="0.880342" ry="0.641667" fill="#6B7280" fill-opacity="0.9"/>
<ellipse cx="321.533" cy="96.7501" rx="0.880342" ry="0.641667" fill="#6B7280" fill-opacity="0.8"/>
<ellipse cx="318.009" cy="96.7501" rx="0.880342" ry="0.641667" fill="#6B7280" fill-opacity="0.7"/>
<ellipse cx="314.49" cy="96.7501" rx="0.880342" ry="0.641667" fill="#6B7280" fill-opacity="0.6"/>
<ellipse cx="310.966" cy="96.7501" rx="0.880342" ry="0.641667" fill="#6B7280" fill-opacity="0.5"/>
<ellipse cx="307.447" cy="96.7501" rx="0.880342" ry="0.641667" fill="#6B7280" fill-opacity="0.4"/>
<ellipse cx="303.923" cy="96.7501" rx="0.880342" ry="0.641667" fill="#6B7280" fill-opacity="0.3"/>
<ellipse cx="300.404" cy="96.7501" rx="0.880342" ry="0.641667" fill="#6B7280" fill-opacity="0.3"/>
<ellipse cx="296.88" cy="96.7501" rx="0.880342" ry="0.641667" fill="#6B7280" fill-opacity="0.2"/>
<ellipse cx="293.361" cy="96.7501" rx="0.880342" ry="0.641667" fill="#6B7280" fill-opacity="0.1"/>
<ellipse cx="234.673" cy="116" rx="0.880342" ry="0.641667" fill="#6B7280" fill-opacity="0.8"/>
<ellipse cx="231.15" cy="116" rx="0.880342" ry="0.641667" fill="#6B7280" fill-opacity="0.7"/>
<ellipse cx="224.107" cy="116" rx="0.880342" ry="0.641667" fill="#6B7280" fill-opacity="0.5"/>
<ellipse cx="220.587" cy="116" rx="0.880342" ry="0.641667" fill="#6B7280" fill-opacity="0.4"/>
<ellipse cx="213.544" cy="116" rx="0.880342" ry="0.641667" fill="#6B7280" fill-opacity="0.3"/>
<ellipse cx="210.021" cy="116" rx="0.880342" ry="0.641667" fill="#6B7280" fill-opacity="0.2"/>
<ellipse cx="206.501" cy="116" rx="0.880342" ry="0.641667" fill="#6B7280" fill-opacity="0.1"/>
<ellipse cx="370.83" cy="144.875" rx="0.880342" ry="0.641667" fill="#6B7280" fill-opacity="0.8"/>
<ellipse cx="367.306" cy="144.875" rx="0.880342" ry="0.641667" fill="#6B7280" fill-opacity="0.7"/>
<ellipse cx="360.263" cy="144.875" rx="0.880342" ry="0.641667" fill="#6B7280" fill-opacity="0.5"/>
<ellipse cx="356.744" cy="144.875" rx="0.880342" ry="0.641667" fill="#6B7280" fill-opacity="0.4"/>
<ellipse cx="349.701" cy="144.875" rx="0.880342" ry="0.641667" fill="#6B7280" fill-opacity="0.3"/>
<ellipse cx="40.4116" cy="96.7501" rx="0.880342" ry="0.641667" fill="#6B7280" fill-opacity="0.8"/>
<ellipse cx="36.8882" cy="96.7501" rx="0.880342" ry="0.641667" fill="#6B7280" fill-opacity="0.7"/>
<ellipse cx="29.8452" cy="96.7501" rx="0.880342" ry="0.641667" fill="#6B7280" fill-opacity="0.5"/>
<ellipse cx="26.3257" cy="96.7501" rx="0.880342" ry="0.641667" fill="#6B7280" fill-opacity="0.4"/>
<ellipse cx="19.2827" cy="96.7501" rx="0.880342" ry="0.641667" fill="#6B7280" fill-opacity="0.3"/>
<ellipse cx="15.7592" cy="96.7501" rx="0.880342" ry="0.641667" fill="#6B7280" fill-opacity="0.2"/>
<ellipse cx="12.2397" cy="96.7501" rx="0.880342" ry="0.641667" fill="#6B7280" fill-opacity="0.1"/>
<ellipse cx="281.33" cy="77.5001" rx="0.880342" ry="0.641667" fill="#6B7280" fill-opacity="0.8"/>
<ellipse cx="277.806" cy="77.5001" rx="0.880342" ry="0.641667" fill="#6B7280" fill-opacity="0.7"/>
<ellipse cx="270.763" cy="77.5001" rx="0.880342" ry="0.641667" fill="#6B7280" fill-opacity="0.5"/>
<ellipse cx="267.244" cy="77.5001" rx="0.880342" ry="0.641667" fill="#6B7280" fill-opacity="0.4"/>
<ellipse cx="260.201" cy="77.5001" rx="0.880342" ry="0.641667" fill="#6B7280" fill-opacity="0.3"/>
<ellipse cx="256.677" cy="77.5001" rx="0.880342" ry="0.641667" fill="#6B7280" fill-opacity="0.2"/>
<ellipse cx="253.158" cy="77.5001" rx="0.880342" ry="0.641667" fill="#6B7280" fill-opacity="0.1"/>
<ellipse cx="215.302" cy="154.5" rx="0.880342" ry="0.641667" fill="#6B7280"/>
<ellipse cx="211.783" cy="154.5" rx="0.880342" ry="0.641667" fill="#6B7280" fill-opacity="0.9"/>
<ellipse cx="208.259" cy="154.5" rx="0.880342" ry="0.641667" fill="#6B7280" fill-opacity="0.8"/>
<ellipse cx="201.216" cy="154.5" rx="0.880342" ry="0.641667" fill="#6B7280" fill-opacity="0.6"/>
<ellipse cx="197.697" cy="154.5" rx="0.880342" ry="0.641667" fill="#6B7280" fill-opacity="0.5"/>
<ellipse cx="166.884" cy="39.0001" rx="0.880342" ry="0.641667" fill="#6B7280"/>
<ellipse cx="163.361" cy="39.0001" rx="0.880342" ry="0.641667" fill="#6B7280" fill-opacity="0.9"/>
<ellipse cx="159.841" cy="39.0001" rx="0.880342" ry="0.641667" fill="#6B7280" fill-opacity="0.8"/>
<ellipse cx="156.318" cy="39.0001" rx="0.880342" ry="0.641667" fill="#6B7280" fill-opacity="0.7"/>
<ellipse cx="152.798" cy="39.0001" rx="0.880342" ry="0.641667" fill="#6B7280" fill-opacity="0.6"/>
<ellipse cx="149.275" cy="39.0001" rx="0.880342" ry="0.641667" fill="#6B7280" fill-opacity="0.5"/>
<ellipse cx="145.755" cy="39.0001" rx="0.880342" ry="0.641667" fill="#6B7280" fill-opacity="0.4"/>
<ellipse cx="142.232" cy="39.0001" rx="0.880342" ry="0.641667" fill="#6B7280" fill-opacity="0.3"/>
<ellipse cx="138.712" cy="39.0001" rx="0.880342" ry="0.641667" fill="#6B7280" fill-opacity="0.3"/>
<ellipse cx="135.189" cy="39.0001" rx="0.880342" ry="0.641667" fill="#6B7280" fill-opacity="0.2"/>
<ellipse cx="131.669" cy="39.0001" rx="0.880342" ry="0.641667" fill="#6B7280" fill-opacity="0.1"/>
<ellipse cx="243.767" cy="29.3751" rx="0.880342" ry="0.641667" fill="#6B7280"/>
<ellipse cx="240.244" cy="29.3751" rx="0.880342" ry="0.641667" fill="#6B7280" fill-opacity="0.9"/>
<ellipse cx="236.724" cy="29.3751" rx="0.880342" ry="0.641667" fill="#6B7280" fill-opacity="0.8"/>
<ellipse cx="233.201" cy="29.3751" rx="0.880342" ry="0.641667" fill="#6B7280" fill-opacity="0.7"/>
<ellipse cx="229.681" cy="29.3751" rx="0.880342" ry="0.641667" fill="#6B7280" fill-opacity="0.6"/>
<ellipse cx="219.115" cy="29.3751" rx="0.880342" ry="0.641667" fill="#6B7280" fill-opacity="0.3"/>
<ellipse cx="212.072" cy="29.3751" rx="0.880342" ry="0.641667" fill="#6B7280" fill-opacity="0.2"/>
<ellipse cx="208.552" cy="29.3751" rx="0.880342" ry="0.641667" fill="#6B7280" fill-opacity="0.1"/>
<ellipse cx="61.5366" cy="135.25" rx="0.880342" ry="0.641667" fill="#6B7280"/>
<ellipse cx="58.0132" cy="135.25" rx="0.880342" ry="0.641667" fill="#6B7280" fill-opacity="0.9"/>
<ellipse cx="54.4936" cy="135.25" rx="0.880342" ry="0.641667" fill="#6B7280" fill-opacity="0.8"/>
<ellipse cx="50.9702" cy="135.25" rx="0.880342" ry="0.641667" fill="#6B7280" fill-opacity="0.7"/>
<ellipse cx="47.4507" cy="135.25" rx="0.880342" ry="0.641667" fill="#6B7280" fill-opacity="0.6"/>
<ellipse cx="43.9272" cy="135.25" rx="0.880342" ry="0.641667" fill="#6B7280" fill-opacity="0.5"/>
<ellipse cx="40.4077" cy="135.25" rx="0.880342" ry="0.641667" fill="#6B7280" fill-opacity="0.4"/>
<ellipse cx="36.8842" cy="135.25" rx="0.880342" ry="0.641667" fill="#6B7280" fill-opacity="0.3"/>
<ellipse cx="33.3647" cy="135.25" rx="0.880342" ry="0.641667" fill="#6B7280" fill-opacity="0.3"/>
<ellipse cx="29.8413" cy="135.25" rx="0.880342" ry="0.641667" fill="#6B7280" fill-opacity="0.2"/>
<ellipse cx="26.3217" cy="135.25" rx="0.880342" ry="0.641667" fill="#6B7280" fill-opacity="0.1"/>
<ellipse cx="83.2514" cy="116" rx="0.880342" ry="0.641667" fill="#6B7280"/>
<ellipse cx="79.728" cy="116" rx="0.880342" ry="0.641667" fill="#6B7280" fill-opacity="0.9"/>
<ellipse cx="76.2085" cy="116" rx="0.880342" ry="0.641667" fill="#6B7280" fill-opacity="0.8"/>
<ellipse cx="132.552" cy="190.434" rx="0.641667" ry="0.880342" transform="rotate(-90 132.552 190.434)" fill="#6B7280"/>
<ellipse cx="132.552" cy="193" rx="0.641667" ry="0.880342" transform="rotate(-90 132.552 193)" fill="#6B7280" fill-opacity="0.9"/>
<ellipse cx="132.552" cy="195.567" rx="0.641667" ry="0.880342" transform="rotate(-90 132.552 195.567)" fill="#6B7280" fill-opacity="0.8"/>
<ellipse cx="308.619" cy="182.947" rx="0.641667" ry="0.880342" transform="rotate(-90 308.619 182.947)" fill="#6B7280"/>
<ellipse cx="308.619" cy="185.514" rx="0.641667" ry="0.880342" transform="rotate(-90 308.619 185.514)" fill="#6B7280" fill-opacity="0.9"/>
<ellipse cx="308.619" cy="188.081" rx="0.641667" ry="0.880342" transform="rotate(-90 308.619 188.081)" fill="#6B7280" fill-opacity="0.8"/>
<ellipse cx="132.552" cy="162.414" rx="0.641667" ry="0.880342" transform="rotate(-90 132.552 162.414)" fill="#6B7280"/>
<ellipse cx="79.7319" cy="182.733" rx="0.641667" ry="0.880342" transform="rotate(-90 79.7319 182.733)" fill="#6B7280"/>
<ellipse cx="168.939" cy="135.25" rx="0.641667" ry="0.880342" transform="rotate(-90 168.939 135.25)" fill="#6B7280"/>
<ellipse cx="287.197" cy="121.989" rx="0.641667" ry="0.880342" transform="rotate(-90 287.197 121.989)" fill="#6B7280"/>
<ellipse cx="102.033" cy="135.25" rx="0.641667" ry="0.880342" transform="rotate(-90 102.033 135.25)" fill="#6B7280"/>
<ellipse cx="137.833" cy="116" rx="0.641667" ry="0.880342" transform="rotate(-90 137.833 116)" fill="#6B7280"/>
<ellipse cx="185.373" cy="58.2499" rx="0.641667" ry="0.880342" transform="rotate(-90 185.373 58.2499)" fill="#6B7280"/>
<ellipse cx="253.744" cy="38.9999" rx="0.641667" ry="0.880342" transform="rotate(-90 253.744 38.9999)" fill="#6B7280"/>
<ellipse cx="345.888" cy="49.9081" rx="0.641667" ry="0.880342" transform="rotate(-90 345.888 49.9081)" fill="#6B7280"/>
<ellipse cx="79.7319" cy="87.1249" rx="0.641667" ry="0.880342" transform="rotate(-90 79.7319 87.1249)" fill="#6B7280"/>
<ellipse cx="0.641667" cy="0.880342" rx="0.641667" ry="0.880342" transform="matrix(-8.2277e-08 1 1 2.32226e-08 52.4414 73.436)" fill="#6B7280"/>
<ellipse cx="0.641667" cy="0.880342" rx="0.641667" ry="0.880342" transform="matrix(-8.2277e-08 1 1 2.32226e-08 52.4414 70.8696)" fill="#6B7280" fill-opacity="0.9"/>
<ellipse cx="0.641667" cy="0.880342" rx="0.641667" ry="0.880342" transform="matrix(-5.99703e-08 1 1 3.18605e-08 52.4414 68.3027)" fill="#6B7280" fill-opacity="0.8"/>
<ellipse cx="0.880342" cy="0.641667" rx="0.880342" ry="0.641667" transform="matrix(-1 -4.64452e-08 -1.64554e-07 1 238.191 211.395)" fill="#6B7280"/>
<ellipse cx="0.880342" cy="0.641667" rx="0.880342" ry="0.641667" transform="matrix(-1 -4.64452e-08 -1.64554e-07 1 241.715 211.395)" fill="#6B7280" fill-opacity="0.9"/>
<ellipse cx="0.880342" cy="0.641667" rx="0.880342" ry="0.641667" transform="matrix(-1 -6.3721e-08 -1.19941e-07 1 245.234 211.395)" fill="#6B7280" fill-opacity="0.8"/>
<path d="M264.75 77.4999H294.828V50.0151H346.035" stroke="#6B7280" stroke-opacity="0.2"/>
<path d="M211.781 38.9999H253.695V49.9082H277.66" stroke="#6B7280" stroke-opacity="0.2"/>
<path d="M264.75 116H287.199V144.875H412.501" stroke="#6B7280" stroke-opacity="0.2"/>
<path d="M389.76 154.5H264.604V125.625H171.875V96.8569" stroke="#6B7280" stroke-opacity="0.2"/>
<path d="M310.822 212.143H185.373V183.268H92.9375V154.5" stroke="#6B7280" stroke-opacity="0.2"/>
<path d="M389.76 0.500012H264.604V29.375H171.875V58.1431" stroke="#6B7280" stroke-opacity="0.2"/>
<path d="M238.191 193.107V204.871H308.619V173.75H398.267" stroke="#6B7280" stroke-opacity="0.2"/>
<path d="M264.75 96.7501H336.938V72.1528H386.384" stroke="#6B7280" stroke-opacity="0.2"/>
<path d="M211.93 212.25H269.299V193H341.78" stroke="#6B7280" stroke-opacity="0.2"/>
<path d="M264.75 173.75H286.025V154.5H339.579V164.339H388.585" stroke="#6B7280" stroke-opacity="0.2"/>
</g>
</svg>
