<svg width="21" height="21" viewBox="0 0 21 21" fill="none" xmlns="http://www.w3.org/2000/svg">
<path d="M10.4989 19.5534C15.4991 19.5534 19.5525 15.5001 19.5525 10.4999C19.5525 5.49971 15.4991 1.44629 10.4989 1.44629C5.49874 1.44629 1.44531 5.49971 1.44531 10.4999C1.44531 15.5001 5.49874 19.5534 10.4989 19.5534Z" stroke="black" stroke-width="1.5" stroke-linecap="round" stroke-linejoin="round"/>
<path d="M9.18435 5.97314C8.85573 5.97314 8.58933 6.23954 8.58933 6.56815V8.58985H6.56766C6.23905 8.58985 5.97266 8.85625 5.97266 9.18486V11.8151C5.97266 12.1437 6.23905 12.4101 6.56766 12.4101H8.58933V14.4317C8.58933 14.7603 8.85573 15.0267 9.18435 15.0267H11.8145C12.1432 15.0267 12.4096 14.7603 12.4096 14.4317V12.4101H14.4312C14.7598 12.4101 15.0262 12.1437 15.0262 11.8151V9.18486C15.0262 8.85625 14.7598 8.58985 14.4312 8.58985H12.4096V6.56815C12.4096 6.23954 12.1432 5.97314 11.8145 5.97314H9.18435Z" stroke="black" stroke-width="1.5" stroke-linecap="round" stroke-linejoin="round"/>
</svg>
