<svg width="20" height="20" viewBox="0 0 20 20" fill="none" xmlns="http://www.w3.org/2000/svg">
<path fill-rule="evenodd" clip-rule="evenodd" d="M10.0001 3.33317C6.31818 3.33317 3.33341 6.31794 3.33341 9.99984C3.33341 13.6817 6.31818 16.6665 10.0001 16.6665C13.682 16.6665 16.6667 13.6817 16.6667 9.99984C16.6667 6.31794 13.682 3.33317 10.0001 3.33317ZM1.66675 9.99984C1.66675 5.39746 5.39771 1.6665 10.0001 1.6665C14.6025 1.6665 18.3334 5.39746 18.3334 9.99984C18.3334 14.6022 14.6025 18.3332 10.0001 18.3332C5.39771 18.3332 1.66675 14.6022 1.66675 9.99984ZM10.072 7.15215C9.74034 7.13948 9.41721 7.25909 9.17372 7.48466C8.93022 7.71024 8.78631 8.0233 8.77364 8.35498C8.75607 8.81488 8.36901 9.17347 7.9091 9.1559C7.4492 9.13833 7.09062 8.75126 7.10819 8.29136C7.13773 7.51797 7.47329 6.788 8.04105 6.26202C8.60881 5.73604 9.36225 5.45715 10.1356 5.48669C10.909 5.51624 11.639 5.8518 12.165 6.41956C12.6887 6.98487 12.9674 7.73427 12.9407 8.50415C12.934 8.88254 12.8525 9.2559 12.7007 9.60267C12.5476 9.95251 12.3262 10.2682 12.0493 10.5313C11.7725 10.7943 11.4459 10.9994 11.0887 11.1344C11.0048 11.1661 10.9196 11.1938 10.8334 11.2175V11.6665C10.8334 12.1267 10.4603 12.4998 10.0001 12.4998C9.53984 12.4998 9.16675 12.1267 9.16675 11.6665V10.4848C9.16675 10.2585 9.25883 10.0419 9.42183 9.88478C9.58483 9.72771 9.80471 9.6437 10.0309 9.65207C10.1906 9.65799 10.3498 9.63193 10.4993 9.57542C10.6488 9.51892 10.7855 9.43311 10.9013 9.32305C11.0171 9.21298 11.1098 9.08087 11.1739 8.93448C11.2379 8.7881 11.2721 8.63038 11.2743 8.47061L11.2749 8.45053C11.2875 8.11885 11.1679 7.79572 10.9423 7.55222C10.7168 7.30873 10.4037 7.16482 10.072 7.15215ZM9.15841 14.173C9.15841 13.7128 9.5315 13.3397 9.99174 13.3397H10.0001C10.4603 13.3397 10.8334 13.7128 10.8334 14.173C10.8334 14.6333 10.4603 15.0063 10.0001 15.0063H9.99174C9.5315 15.0063 9.15841 14.6333 9.15841 14.173Z" fill="#101828"/>
</svg>
