<svg width="398" height="301" viewBox="0 0 398 301" fill="none" xmlns="http://www.w3.org/2000/svg">
<path d="M370.067 135.182C370.067 209.841 309.461 270.364 234.699 270.364C159.937 270.364 99.3311 209.841 99.3311 135.182C99.3311 60.5231 159.937 0 234.699 0C309.461 0 370.067 60.5231 370.067 135.182Z" fill="url(#paint0_linear_606_18895)"/>
<path d="M19.0283 287.53L52.0503 286.451L44.2591 268.847C37.6221 267.381 33.7692 266.056 29.4137 256.688C24.7582 246.674 23.0526 244.615 19.8295 243.185L19.0283 287.53Z" fill="#111928"/>
<path d="M19.8291 243.185L19.8291 287.53L15.7094 288.044C14.8544 288.151 14.0992 287.485 14.0992 286.625L14.0992 244.615C14.0992 243.825 14.7406 243.185 15.5317 243.185L19.8291 243.185Z" fill="#C16180"/>
<path d="M152.428 237.069L44.0476 256.188C43.3134 256.317 42.8014 256.987 42.8705 257.729L45.4762 285.702C45.5512 286.506 46.2779 287.089 47.0807 286.989L162.717 272.51L267.645 287.888L211.063 238.178L172.426 235.908C165.738 235.515 159.026 235.905 152.428 237.069Z" fill="#374151"/>
<path d="M152.428 237.069L44.0476 256.188C43.3134 256.317 42.8014 256.987 42.8705 257.729L45.4762 285.702C45.5512 286.506 46.2779 287.089 47.0807 286.989L162.717 272.51L267.645 287.888L211.063 238.178L172.426 235.908C165.738 235.515 159.026 235.905 152.428 237.069Z" fill="url(#paint1_linear_606_18895)"/>
<path fill-rule="evenodd" clip-rule="evenodd" d="M54.4693 286.064L51.6736 254.842L50.2578 255.092L53.047 286.242L54.4693 286.064Z" fill="#A4CAFE"/>
<path d="M228.253 153.779L265.139 125.526L258.693 170.587L229.327 182.389L228.253 153.779Z" fill="#F9FAFB"/>
<path d="M228.253 153.779L265.139 125.526L258.693 170.587L229.327 182.389L228.253 153.779Z" fill="url(#paint2_linear_606_18895)"/>
<path d="M255.747 72.3783C256.221 67.6604 260.475 58.257 274.512 59.3673C276.756 59.8222 281.961 63.0632 284.828 72.387C288.411 84.0419 300.581 77.2497 305.238 87.6237C309.895 97.9978 299.515 103.002 302.381 109.799C305.247 116.596 305.965 123.749 303.46 127.325C300.834 122.913 293.861 111.728 284.123 108.005L271.947 94.4095L256.905 75.4481L255.747 72.3783Z" fill="#111928"/>
<path d="M291.852 57.505C286.763 63.8881 278.159 65.5016 272.635 61.109C267.111 56.7164 266.758 47.981 271.847 41.598C276.935 35.215 285.539 33.6014 291.063 37.994C296.587 42.3867 296.94 51.122 291.852 57.505Z" fill="#111928"/>
<path d="M272.949 115.391L267.1 99.0873L274.315 90.0566L284.438 108.115C282.526 111.423 275.642 114.455 272.949 115.391Z" fill="#FDBA8C"/>
<path d="M272.949 115.391L267.1 99.0873L274.315 90.0566L284.438 108.115C282.526 111.423 275.642 114.455 272.949 115.391Z" fill="url(#paint3_linear_606_18895)"/>
<path d="M278.483 80.6684C280.791 82.0419 276.974 100.331 265.17 100.691C261.09 100.815 258.628 97.3318 257.211 92.5646C257.106 92.2096 256.836 92.6976 256.742 92.3293C256.651 91.9702 256.733 90.755 256.652 90.3851C255.343 84.4374 255.344 77.2054 255.743 72.386C257.697 73.2443 262.086 75.9941 264.014 80.1267C266.423 85.2924 270.807 86.3794 272.597 84.0179C274.524 81.4745 276.176 79.2949 278.483 80.6684Z" fill="#FDBA8C"/>
<path fill-rule="evenodd" clip-rule="evenodd" d="M256.402 84.8074C256.669 84.8104 256.884 85.0299 256.881 85.2975L256.809 91.9639C256.808 92.0829 256.916 92.173 257.033 92.1496L259.836 91.5893C260.098 91.5368 260.354 91.7069 260.406 91.9693C260.459 92.2318 260.289 92.4871 260.026 92.5396L257.224 93.1C256.503 93.2442 255.831 92.6879 255.839 91.9528L255.911 85.2864C255.914 85.0188 256.134 84.8043 256.402 84.8074Z" fill="#111928"/>
<path fill-rule="evenodd" clip-rule="evenodd" d="M261.377 95.3236C261.953 95.1003 262.534 94.7633 263.413 94.2243C263.641 94.0843 263.94 94.1558 264.08 94.384C264.221 94.6122 264.149 94.9106 263.921 95.0506C263.049 95.585 262.398 95.9679 261.729 96.2274C261.047 96.4917 260.366 96.6212 259.433 96.6859C259.165 96.7044 258.933 96.5029 258.915 96.2359C258.896 95.9688 259.098 95.7373 259.365 95.7188C260.236 95.6584 260.814 95.5421 261.377 95.3236Z" fill="#111928"/>
<path fill-rule="evenodd" clip-rule="evenodd" d="M276.682 85.518C276.866 84.83 276.733 84.1917 276.473 83.5503C276.372 83.3022 276.492 83.0198 276.74 82.9194C276.988 82.819 277.271 82.9387 277.372 83.1868C277.673 83.9276 277.88 84.7962 277.62 85.769C277.36 86.7367 276.66 87.7258 275.319 88.7631C275.107 88.927 274.802 88.8883 274.638 88.6767C274.474 88.4652 274.512 88.1608 274.724 87.997C275.966 87.0365 276.496 86.2111 276.682 85.518Z" fill="#111928"/>
<path fill-rule="evenodd" clip-rule="evenodd" d="M262.59 89.4783C262.848 88.4857 262.891 87.0966 262.602 85.5662C262.314 84.0358 261.768 82.7571 261.167 81.9258C260.511 81.0191 260.044 80.9514 259.916 80.9754C259.788 80.9995 259.377 81.2319 259.096 82.3144C258.838 83.3069 258.795 84.6961 259.084 86.2265C259.372 87.7569 259.918 89.0356 260.519 89.8669C261.175 90.7736 261.642 90.8413 261.77 90.8172C261.898 90.7932 262.309 90.5608 262.59 89.4783ZM261.969 91.8717C263.523 91.58 264.28 88.6682 263.658 85.3681C263.036 82.068 261.272 79.6292 259.717 79.921C258.163 80.2127 257.406 83.1245 258.028 86.4246C258.65 89.7247 260.414 92.1635 261.969 91.8717Z" fill="#111928"/>
<path fill-rule="evenodd" clip-rule="evenodd" d="M255.428 89.4783C255.685 88.4857 255.729 87.0966 255.44 85.5662C255.152 84.0358 254.606 82.7571 254.005 81.9258C253.349 81.0191 252.882 80.9514 252.754 80.9754C252.625 80.9995 252.215 81.2319 251.934 82.3144C251.676 83.3069 251.633 84.6961 251.922 86.2265C252.21 87.7569 252.756 89.0356 253.357 89.8669C254.013 90.7736 254.48 90.8413 254.608 90.8172C254.736 90.7932 255.147 90.5608 255.428 89.4783ZM254.807 91.8717C256.361 91.58 257.118 88.6682 256.496 85.3681C255.874 82.068 254.11 79.6292 252.555 79.921C251 80.2127 250.244 83.1245 250.866 86.4246C251.488 89.7247 253.252 92.1635 254.807 91.8717Z" fill="#111928"/>
<path d="M128.697 283.239L144.454 256.775L124.041 256.775C119.451 261.782 112.565 272.296 102.418 274.299C92.2713 276.301 85.6277 281.093 83.5742 283.239H128.697Z" fill="#111928"/>
<path d="M83.5743 283.239H128.697L126.244 287.525C125.989 287.971 125.515 288.246 125.001 288.246H83.1777C82.0779 288.246 81.3883 287.059 81.934 286.106L83.5743 283.239Z" fill="#C16180"/>
<path d="M270.153 288.246C305.105 287.96 306.442 239.609 302.742 215.648L265.856 210.641C249.621 200.032 214.43 176.881 203.543 169.157C189.935 159.501 176.327 158.786 164.151 172.018C154.692 182.297 122.181 231.4 105.77 256.72C105.153 257.671 105.841 258.921 106.975 258.921H146.895C147.382 258.921 147.837 258.673 148.1 258.263L182.415 204.919C197.097 232.695 235.201 288.532 270.153 288.246Z" fill="#374151"/>
<path d="M270.153 288.246C305.105 287.96 306.442 239.609 302.742 215.648L265.856 210.641C249.621 200.032 214.43 176.881 203.543 169.157C189.935 159.501 176.327 158.786 164.151 172.018C154.692 182.297 122.181 231.4 105.77 256.72C105.153 257.671 105.841 258.921 106.975 258.921H146.895C147.382 258.921 147.837 258.673 148.1 258.263L182.415 204.919C197.097 232.695 235.201 288.532 270.153 288.246Z" fill="url(#paint4_linear_606_18895)"/>
<path fill-rule="evenodd" clip-rule="evenodd" d="M153.198 250.337H109.92C109.605 250.82 109.294 251.297 108.987 251.768H152.278L153.198 250.337Z" fill="#A4CAFE"/>
<path d="M306.681 217.794L288.417 216.721L305.248 179.886L306.681 217.794Z" fill="#F9FAFB"/>
<path d="M306.681 217.794L288.417 216.721L305.248 179.886L306.681 217.794Z" fill="url(#paint5_linear_606_18895)"/>
<path d="M282.687 223.516C273.111 225.906 262.589 222.111 257.597 219.456C256.98 219.128 256.729 218.39 256.981 217.739L260.842 207.78L254.396 203.131C253.799 187.991 252.963 157.212 254.395 145.196C255.828 133.179 266.691 121.592 271.943 117.301L288.775 110.148C294.266 110.864 305.821 119.59 308.113 148.772C310.978 185.25 295.579 220.297 282.687 223.516Z" fill="#F9FAFB"/>
<path d="M268.352 193.344L266.93 191.687L253.68 181.674L261.558 156.998L279.822 170.945L269.546 193.179C269.328 193.652 268.692 193.74 268.352 193.344Z" fill="url(#paint6_linear_606_18895)"/>
<path d="M271.943 118.374C271.657 116.371 272.302 114.917 272.66 114.44C277.817 113.582 282.687 109.791 284.477 108.003C286.483 108.575 288.178 109.672 288.775 110.149C288.417 110.864 286.698 112.867 282.687 115.155C278.676 117.444 273.853 118.255 271.943 118.374Z" fill="#F9FAFB"/>
<path d="M271.943 118.374C271.657 116.371 272.302 114.917 272.66 114.44C277.817 113.582 282.687 109.791 284.477 108.003C286.483 108.575 288.178 109.672 288.775 110.149C288.417 110.864 286.698 112.867 282.687 115.155C278.676 117.444 273.853 118.255 271.943 118.374Z" fill="url(#paint7_linear_606_18895)"/>
<path d="M238.638 111.896C236.131 89.4062 209.392 89.7632 203.185 89.4062C196.309 89.4062 192.203 92.7381 191.009 94.404C201.394 99.4018 205.692 113.681 201.036 138.67C196.381 163.659 201.036 202.57 224.672 230.057C248.307 257.545 309.187 242.195 324.586 261.829C335.932 276.296 349.972 284.605 356.969 287.594C358.046 288.054 359.207 288.246 360.379 288.246H398C381.885 288.246 365.053 267.184 352.877 255.76C340.701 244.337 308.829 247.55 289.133 244.337C269.436 241.124 249.74 220.776 240.429 194.002C231.118 167.229 241.038 133.423 238.638 111.896Z" fill="#DD98AB"/>
<path d="M238.638 111.896C236.131 89.4062 209.392 89.7632 203.185 89.4062C196.309 89.4062 192.203 92.7381 191.009 94.404C201.394 99.4018 205.692 113.681 201.036 138.67C196.381 163.659 201.036 202.57 224.672 230.057C248.307 257.545 309.187 242.195 324.586 261.829C335.932 276.296 349.972 284.605 356.969 287.594C358.046 288.054 359.207 288.246 360.379 288.246H398C381.885 288.246 365.053 267.184 352.877 255.76C340.701 244.337 308.829 247.55 289.133 244.337C269.436 241.124 249.74 220.776 240.429 194.002C231.118 167.229 241.038 133.423 238.638 111.896Z" fill="url(#paint8_linear_606_18895)"/>
<path d="M238.638 111.896C236.131 89.4062 209.392 89.7632 203.185 89.4062C196.309 89.4062 192.203 92.7381 191.009 94.404C201.394 99.4018 205.692 113.681 201.036 138.67C196.381 163.659 201.036 202.57 224.672 230.057C248.307 257.545 309.187 242.195 324.586 261.829C335.932 276.296 349.972 284.605 356.969 287.594C358.046 288.054 359.207 288.246 360.379 288.246H398C381.885 288.246 365.053 267.184 352.877 255.76C340.701 244.337 308.829 247.55 289.133 244.337C269.436 241.124 249.74 220.776 240.429 194.002C231.118 167.229 241.038 133.423 238.638 111.896Z" fill="url(#paint9_linear_606_18895)"/>
<path d="M220.732 142.335C222.523 151.633 240.429 171.66 260.841 208.138L266.929 191.687C258.096 180.005 239.927 155.638 237.922 151.633C236.124 148.043 233.809 143.993 232.317 141.905C232.039 141.515 231.53 141.383 231.085 141.561C230.515 141.789 230.247 142.442 230.493 143.004L232.55 147.699C228.492 142.812 219.325 135.025 220.732 142.335Z" fill="#FDBA8C"/>
<path d="M220.732 142.335C222.523 151.633 240.429 171.66 260.841 208.138L266.929 191.687C258.096 180.005 239.927 155.638 237.922 151.633C236.124 148.043 233.809 143.993 232.317 141.905C232.039 141.515 231.53 141.383 231.085 141.561C230.515 141.789 230.247 142.442 230.493 143.004L232.55 147.699C228.492 142.812 219.325 135.025 220.732 142.335Z" fill="url(#paint10_linear_606_18895)"/>
<path d="M212.138 110.148C211.852 112.437 205.811 119.208 202.827 122.308C202.469 133.036 201.037 139.593 199.962 146.626C198.291 138.997 195.45 122.451 197.455 117.301C199.962 110.864 206.766 107.645 208.557 107.287C210.348 106.93 212.496 107.287 212.138 110.148Z" fill="#FDBA8C"/>
<path d="M212.138 110.148C211.852 112.437 205.811 119.208 202.827 122.308C202.469 133.036 201.037 139.593 199.962 146.626C198.291 138.997 195.45 122.451 197.455 117.301C199.962 110.864 206.766 107.645 208.557 107.287C210.348 106.93 212.496 107.287 212.138 110.148Z" fill="url(#paint11_linear_606_18895)"/>
<path d="M95.0332 46.491C95.0332 45.701 95.6745 45.0605 96.4657 45.0605H154.489C155.281 45.0605 155.922 45.701 155.922 46.491V68.186C155.922 68.976 155.281 69.6165 154.489 69.6165H96.4657C95.6745 69.6165 95.0332 68.976 95.0332 68.186V46.491Z" fill="#DD98AB"/>
<path fill-rule="evenodd" clip-rule="evenodd" d="M112.478 52.6673C112.778 52.9244 112.813 53.3759 112.556 53.6759L106.125 61.1678C105.52 61.873 104.413 61.8241 103.872 61.0683L101.476 57.7188C101.246 57.3973 101.321 56.9506 101.643 56.721C101.965 56.4914 102.412 56.5659 102.642 56.8873L105.038 60.2369L111.468 52.7449C111.726 52.445 112.178 52.4102 112.478 52.6673Z" fill="#F9FAFB"/>
<path d="M117.281 57.2201C117.281 56.8251 117.602 56.5049 117.997 56.5049H149.351C149.747 56.5049 150.067 56.8251 150.067 57.2201C150.067 57.6152 149.747 57.9354 149.351 57.9354H117.997C117.602 57.9354 117.281 57.6152 117.281 57.2201Z" fill="#F9FAFB"/>
<path d="M316.34 46.491C316.34 45.701 316.981 45.0605 317.772 45.0605H375.796C376.587 45.0605 377.229 45.701 377.229 46.491V68.186C377.229 68.976 376.587 69.6165 375.796 69.6165H317.772C316.981 69.6165 316.34 68.976 316.34 68.186V46.491Z" fill="#DD98AB"/>
<path fill-rule="evenodd" clip-rule="evenodd" d="M333.785 52.6673C334.085 52.9244 334.12 53.3759 333.862 53.6759L327.432 61.1678C326.827 61.873 325.719 61.8241 325.179 61.0683L322.783 57.7188C322.553 57.3973 322.628 56.9506 322.949 56.721C323.271 56.4914 323.719 56.5659 323.949 56.8873L326.344 60.2369L332.775 52.7449C333.032 52.445 333.484 52.4102 333.785 52.6673Z" fill="#F9FAFB"/>
<path d="M338.588 57.2201C338.588 56.8251 338.909 56.5049 339.304 56.5049H370.658C371.053 56.5049 371.374 56.8251 371.374 57.2201C371.374 57.6152 371.053 57.9354 370.658 57.9354H339.304C338.909 57.9354 338.588 57.6152 338.588 57.2201Z" fill="#F9FAFB"/>
<path d="M125.478 7.5866C125.478 6.9517 125.993 6.43701 126.629 6.43701H173.258C173.894 6.43701 174.409 6.9517 174.409 7.5866V25.0212C174.409 25.6561 173.894 26.1708 173.258 26.1708H126.629C125.993 26.1708 125.478 25.6561 125.478 25.0212V7.5866Z" fill="#DD98AB"/>
<path fill-rule="evenodd" clip-rule="evenodd" d="M139.588 12.472C139.888 12.7291 139.923 13.1806 139.666 13.4805L134.498 19.5013C133.952 20.1373 132.954 20.0932 132.466 19.4116L130.541 16.7198C130.311 16.3983 130.385 15.9516 130.707 15.722C131.029 15.4924 131.476 15.5669 131.706 15.8883L133.527 18.4342L138.578 12.5496C138.836 12.2497 139.288 12.2149 139.588 12.472Z" fill="#F9FAFB"/>
<path d="M143.356 16.4506C143.356 16.0556 143.677 15.7354 144.073 15.7354H168.988C169.384 15.7354 169.704 16.0556 169.704 16.4506C169.704 16.8456 169.384 17.1659 168.988 17.1659H144.073C143.677 17.1659 143.356 16.8456 143.356 16.4506Z" fill="#F9FAFB"/>
<path d="M172.029 159.627C154.827 242.854 106.373 279.449 83.2277 287.865C82.496 288.131 81.7447 288.246 80.966 288.246H54.6746C53.946 288.246 53.659 287.278 54.2744 286.888C68.994 277.571 98.8386 253.291 116.521 219.816C139.799 175.749 139.441 140.639 147.319 115.56C153.622 95.4968 166.419 89.7645 172.029 89.4062H203.185C182.844 89.4062 175.435 143.147 172.029 159.627Z" fill="#FDE6EE"/>
<path d="M172.029 159.627C154.827 242.854 106.373 279.449 83.2277 287.865C82.496 288.131 81.7447 288.246 80.966 288.246H54.6746C53.946 288.246 53.659 287.278 54.2744 286.888C68.994 277.571 98.8386 253.291 116.521 219.816C139.799 175.749 139.441 140.639 147.319 115.56C153.622 95.4968 166.419 89.7645 172.029 89.4062H203.185C182.844 89.4062 175.435 143.147 172.029 159.627Z" fill="url(#paint12_linear_606_18895)" fill-opacity="0.5"/>
<path fill-rule="evenodd" clip-rule="evenodd" d="M176.124 106.619C175.929 106.453 175.907 106.161 176.074 105.967L179.419 102.07C179.772 101.658 180.418 101.687 180.734 102.128L181.98 103.87C182.129 104.078 182.081 104.367 181.872 104.516C181.664 104.664 181.374 104.616 181.226 104.408L180.047 102.76L176.778 106.569C176.611 106.763 176.318 106.786 176.124 106.619Z" fill="#AE325B"/>
<path d="M173.685 104.044C173.685 104.3 173.477 104.507 173.221 104.507L157.094 104.507C156.838 104.507 156.63 104.3 156.63 104.044C156.63 103.789 156.838 103.581 157.094 103.581L173.221 103.581C173.477 103.581 173.685 103.789 173.685 104.044Z" fill="#AE325B"/>
<path fill-rule="evenodd" clip-rule="evenodd" d="M171.11 120.925C170.916 120.758 170.893 120.466 171.06 120.272L174.405 116.375C174.758 115.963 175.405 115.992 175.72 116.433L176.966 118.175C177.115 118.383 177.067 118.672 176.859 118.821C176.65 118.97 176.361 118.921 176.212 118.713L175.033 117.066L171.764 120.874C171.597 121.069 171.305 121.091 171.11 120.925Z" fill="#AE325B"/>
<path d="M168.671 118.35C168.671 118.605 168.463 118.812 168.207 118.812L152.08 118.812C151.824 118.812 151.617 118.605 151.617 118.35C151.617 118.094 151.824 117.887 152.08 117.887L168.207 117.887C168.463 117.887 168.671 118.094 168.671 118.35Z" fill="#AE325B"/>
<path fill-rule="evenodd" clip-rule="evenodd" d="M167.529 135.229C167.335 135.063 167.312 134.771 167.479 134.577L170.824 130.68C171.177 130.268 171.823 130.296 172.139 130.738L173.385 132.48C173.534 132.688 173.486 132.977 173.278 133.126C173.069 133.274 172.78 133.226 172.631 133.018L171.452 131.37L168.183 135.179C168.016 135.373 167.724 135.396 167.529 135.229Z" fill="#AE325B"/>
<path d="M165.09 132.654C165.09 132.91 164.882 133.117 164.626 133.117L148.499 133.117C148.243 133.117 148.036 132.91 148.036 132.654C148.036 132.399 148.243 132.191 148.499 132.191L164.626 132.191C164.882 132.191 165.09 132.399 165.09 132.654Z" fill="#AE325B"/>
<path fill-rule="evenodd" clip-rule="evenodd" d="M161.799 163.84C161.604 163.673 161.582 163.381 161.748 163.187L165.093 159.29C165.447 158.878 166.093 158.907 166.409 159.348L167.655 161.09C167.804 161.298 167.755 161.587 167.547 161.736C167.339 161.885 167.049 161.836 166.9 161.628L165.722 159.981L162.452 163.789C162.286 163.984 161.993 164.006 161.799 163.84Z" fill="#AE325B"/>
<path d="M159.359 161.265C159.359 161.52 159.152 161.728 158.896 161.728L142.769 161.728C142.513 161.728 142.305 161.52 142.305 161.265C142.305 161.009 142.513 160.802 142.769 160.802L158.896 160.802C159.152 160.802 159.359 161.009 159.359 161.265Z" fill="#AE325B"/>
<path fill-rule="evenodd" clip-rule="evenodd" d="M158.934 178.144C158.74 177.978 158.718 177.686 158.884 177.492L162.229 173.595C162.582 173.183 163.229 173.211 163.544 173.653L164.791 175.395C164.939 175.603 164.891 175.892 164.683 176.041C164.474 176.189 164.185 176.141 164.036 175.933L162.857 174.285L159.588 178.094C159.421 178.288 159.129 178.311 158.934 178.144Z" fill="#AE325B"/>
<path d="M156.495 175.569C156.495 175.825 156.288 176.032 156.032 176.032L139.904 176.032C139.648 176.032 139.441 175.825 139.441 175.569C139.441 175.314 139.648 175.106 139.904 175.106L156.032 175.106C156.288 175.106 156.495 175.314 156.495 175.569Z" fill="#AE325B"/>
<path fill-rule="evenodd" clip-rule="evenodd" d="M153.921 192.45C153.726 192.283 153.704 191.991 153.87 191.797L157.215 187.9C157.569 187.488 158.215 187.517 158.531 187.958L159.777 189.7C159.926 189.908 159.877 190.197 159.669 190.346C159.461 190.495 159.171 190.446 159.022 190.238L157.844 188.59L154.574 192.399C154.408 192.593 154.115 192.616 153.921 192.45Z" fill="#AE325B"/>
<path d="M151.481 189.874C151.481 190.13 151.274 190.337 151.018 190.337L134.891 190.337C134.635 190.337 134.427 190.13 134.427 189.874C134.427 189.619 134.635 189.411 134.891 189.411L151.018 189.411C151.274 189.411 151.481 189.619 151.481 189.874Z" fill="#AE325B"/>
<path fill-rule="evenodd" clip-rule="evenodd" d="M141.028 221.059C140.834 220.893 140.811 220.601 140.978 220.407L144.323 216.51C144.676 216.098 145.323 216.126 145.638 216.568L146.884 218.31C147.033 218.518 146.985 218.807 146.777 218.956C146.568 219.104 146.279 219.056 146.13 218.848L144.951 217.2L141.682 221.009C141.515 221.203 141.223 221.226 141.028 221.059Z" fill="#AE325B"/>
<path d="M138.589 218.484C138.589 218.74 138.381 218.947 138.125 218.947L121.998 218.947C121.742 218.947 121.535 218.74 121.535 218.484C121.535 218.229 121.742 218.021 121.998 218.021L138.125 218.021C138.381 218.021 138.589 218.229 138.589 218.484Z" fill="#AE325B"/>
<path fill-rule="evenodd" clip-rule="evenodd" d="M133.866 235.365C133.672 235.198 133.649 234.906 133.816 234.712L137.161 230.815C137.514 230.403 138.16 230.432 138.476 230.873L139.722 232.615C139.871 232.823 139.823 233.112 139.614 233.261C139.406 233.41 139.117 233.361 138.968 233.153L137.789 231.505L134.52 235.314C134.353 235.509 134.06 235.531 133.866 235.365Z" fill="#AE325B"/>
<path d="M131.427 232.789C131.427 233.045 131.219 233.252 130.963 233.252L114.836 233.252C114.58 233.252 114.373 233.045 114.373 232.789C114.373 232.534 114.58 232.327 114.836 232.327L130.963 232.327C131.219 232.327 131.427 232.534 131.427 232.789Z" fill="#AE325B"/>
<path fill-rule="evenodd" clip-rule="evenodd" d="M123.839 249.669C123.644 249.503 123.622 249.211 123.788 249.016L127.133 245.119C127.487 244.708 128.133 244.736 128.449 245.178L129.695 246.92C129.844 247.128 129.795 247.417 129.587 247.566C129.379 247.714 129.089 247.666 128.94 247.458L127.762 245.81L124.492 249.619C124.326 249.813 124.033 249.836 123.839 249.669Z" fill="#AE325B"/>
<path d="M121.399 247.094C121.399 247.35 121.192 247.557 120.936 247.557L104.809 247.557C104.553 247.557 104.345 247.35 104.345 247.094C104.345 246.838 104.553 246.631 104.809 246.631L120.936 246.631C121.192 246.631 121.399 246.838 121.399 247.094Z" fill="#AE325B"/>
<defs>
<linearGradient id="paint0_linear_606_18895" x1="234.699" y1="0" x2="234.699" y2="270.364" gradientUnits="userSpaceOnUse">
<stop stop-color="#FFE0E9"/>
<stop offset="0.85" stop-color="#FFE0E9" stop-opacity="0"/>
<stop offset="1" stop-color="#FFE0E9" stop-opacity="0"/>
</linearGradient>
<linearGradient id="paint1_linear_606_18895" x1="428.081" y1="-59.0082" x2="238.628" y2="-119.596" gradientUnits="userSpaceOnUse">
<stop stop-color="#111928"/>
<stop offset="1" stop-color="#111928" stop-opacity="0"/>
</linearGradient>
<linearGradient id="paint2_linear_606_18895" x1="275.524" y1="182.389" x2="236.648" y2="121.441" gradientUnits="userSpaceOnUse">
<stop stop-color="#FFADC8"/>
<stop offset="0.55" stop-color="#FFADC8" stop-opacity="0"/>
<stop offset="1" stop-color="#FFADC8" stop-opacity="0"/>
</linearGradient>
<linearGradient id="paint3_linear_606_18895" x1="275.367" y1="85.0561" x2="278.632" y2="108.729" gradientUnits="userSpaceOnUse">
<stop stop-color="#7F270F"/>
<stop offset="1" stop-color="#7F270F" stop-opacity="0"/>
</linearGradient>
<linearGradient id="paint4_linear_606_18895" x1="281.255" y1="1.07298" x2="200.194" y2="14.6597" gradientUnits="userSpaceOnUse">
<stop stop-color="#111928"/>
<stop offset="1" stop-color="#111928" stop-opacity="0"/>
</linearGradient>
<linearGradient id="paint5_linear_606_18895" x1="301.667" y1="170.945" x2="321.035" y2="213.216" gradientUnits="userSpaceOnUse">
<stop stop-color="#FFADC8"/>
<stop offset="0.735577" stop-color="#FFADC8" stop-opacity="0"/>
<stop offset="1" stop-color="#FFADC8" stop-opacity="0"/>
</linearGradient>
<linearGradient id="paint6_linear_606_18895" x1="269.437" y1="201.343" x2="264.285" y2="174.395" gradientUnits="userSpaceOnUse">
<stop stop-color="#FFADC8"/>
<stop offset="1" stop-color="#FFADC8" stop-opacity="0"/>
</linearGradient>
<linearGradient id="paint7_linear_606_18895" x1="284.728" y1="121.716" x2="283.494" y2="112.128" gradientUnits="userSpaceOnUse">
<stop stop-color="#FFADC8"/>
<stop offset="1" stop-color="#FFADC8" stop-opacity="0"/>
</linearGradient>
<linearGradient id="paint8_linear_606_18895" x1="398" y1="327.942" x2="217.344" y2="183.935" gradientUnits="userSpaceOnUse">
<stop stop-color="#F4C4D4"/>
<stop offset="1" stop-color="#E1EFFE" stop-opacity="0"/>
</linearGradient>
<linearGradient id="paint9_linear_606_18895" x1="235.773" y1="7.15252" x2="277.21" y2="148.803" gradientUnits="userSpaceOnUse">
<stop stop-color="#E90B48"/>
<stop offset="1" stop-color="#FFADC8" stop-opacity="0"/>
</linearGradient>
<linearGradient id="paint10_linear_606_18895" x1="327.809" y1="273.941" x2="277.428" y2="167.673" gradientUnits="userSpaceOnUse">
<stop stop-color="#7F270F"/>
<stop offset="1" stop-color="#7F270F" stop-opacity="0"/>
</linearGradient>
<linearGradient id="paint11_linear_606_18895" x1="232.424" y1="184.365" x2="190.818" y2="135.341" gradientUnits="userSpaceOnUse">
<stop stop-color="#7F270F"/>
<stop offset="1" stop-color="#7F270F" stop-opacity="0"/>
</linearGradient>
<linearGradient id="paint12_linear_606_18895" x1="102.555" y1="-84.0418" x2="161.314" y2="174.061" gradientUnits="userSpaceOnUse">
<stop stop-color="#FFADC8"/>
<stop offset="1" stop-color="#FFADC8" stop-opacity="0"/>
</linearGradient>
</defs>
</svg>
