<svg width="31" height="31" viewBox="0 0 31 31" fill="none" xmlns="http://www.w3.org/2000/svg">
<path d="M3.71443 28.8573H18.5716L28.8573 18.5716V3.71443C28.8573 3.10821 28.6164 2.52684 28.1878 2.09817C27.7592 1.66953 27.1777 1.42871 26.5716 1.42871H3.71443C3.10821 1.42871 2.52684 1.66953 2.09817 2.09817C1.66953 2.52684 1.42871 3.10821 1.42871 3.71443V26.5716C1.42871 27.1777 1.66953 27.7592 2.09817 28.1878C2.52684 28.6164 3.10821 28.8573 3.71443 28.8573Z" fill="#E4FFF4"/>
<path fill-rule="evenodd" clip-rule="evenodd" d="M3.10818 3.10818C3.26894 2.94745 3.48695 2.85714 3.71429 2.85714H26.5714C26.7989 2.85714 27.0167 2.94745 27.1776 3.10818C27.3383 3.26894 27.4286 3.48695 27.4286 3.71429V17.1429H19.7143C19.0323 17.1429 18.3782 17.4138 17.896 17.896C17.4138 18.3782 17.1429 19.0323 17.1429 19.7143V27.4286H3.71429C3.48695 27.4286 3.26894 27.3383 3.10818 27.1776C2.94745 27.0167 2.85714 26.7989 2.85714 26.5714V3.71429C2.85714 3.48695 2.94745 3.26894 3.10818 3.10818ZM30.2857 18.5714C30.2857 18.955 30.1346 19.3032 29.8887 19.5598L29.8672 19.5816L19.5816 29.8672L19.5598 29.8887C19.3032 30.1346 18.955 30.2857 18.5714 30.2857H3.71429C2.72919 30.2857 1.78446 29.8944 1.08789 29.1977C0.391326 28.5013 0 27.5566 0 26.5714V3.71429C0 2.72919 0.391326 1.78446 1.08789 1.08789C1.78446 0.391326 2.72919 0 3.71429 0H26.5714C27.5566 0 28.5013 0.391326 29.1977 1.08789C29.8944 1.78446 30.2857 2.72919 30.2857 3.71429V18.5714ZM7.14286 9.42857C6.19609 9.42857 5.42857 10.1961 5.42857 11.1429C5.42857 12.0896 6.19609 12.8571 7.14286 12.8571H18.5714C19.5182 12.8571 20.2857 12.0896 20.2857 11.1429C20.2857 10.1961 19.5182 9.42857 18.5714 9.42857H7.14286Z" fill="#2D7614"/>
</svg>
