<svg width="32" height="32" viewBox="0 0 32 32" fill="none" xmlns="http://www.w3.org/2000/svg">
<path d="M20.8806 14.4902C21.8805 13.545 23.2096 13.0271 24.5854 13.0464C25.9612 13.0658 27.2752 13.6209 28.2481 14.5938C29.221 15.5667 29.776 16.8807 29.7954 18.2565C29.8147 19.6323 29.2968 20.9614 28.3517 21.9613L21.9843 28.3285C20.9899 29.2804 19.6635 29.8068 18.2871 29.7955C16.9107 29.7845 15.5929 29.2367 14.6141 28.2691C13.6353 27.3012 13.0727 25.9898 13.0459 24.6136C13.0191 23.2374 13.5304 21.9051 14.4708 20.9L20.8806 14.4902Z" stroke="black" stroke-width="1.5" stroke-linecap="round" stroke-linejoin="round"/>
<path d="M17.9939 17.377L25.465 24.8479" stroke="black" stroke-width="1.5" stroke-linecap="round" stroke-linejoin="round"/>
<path d="M9.63267 17.0612C13.7354 17.0612 17.0612 13.7354 17.0612 9.63267C17.0612 5.52998 13.7354 2.2041 9.63267 2.2041C5.52998 2.2041 2.2041 5.52998 2.2041 9.63267C2.2041 13.7354 5.52998 17.0612 9.63267 17.0612Z" stroke="black" stroke-width="1.5" stroke-linecap="round" stroke-linejoin="round"/>
<path d="M2.2041 9.63281H17.0612" stroke="black" stroke-width="1.5" stroke-linecap="round" stroke-linejoin="round"/>
</svg>
